%TF.GenerationSoftware,KiCad,Pcbnew,7.0.2*%
%TF.CreationDate,2023-10-12T22:53:16+02:00*%
%TF.ProjectId,tja1018-breakout,746a6131-3031-4382-9d62-7265616b6f75,rev?*%
%TF.SameCoordinates,Original*%
%TF.FileFunction,Legend,Top*%
%TF.FilePolarity,Positive*%
%FSLAX46Y46*%
G04 Gerber Fmt 4.6, Leading zero omitted, Abs format (unit mm)*
G04 Created by KiCad (PCBNEW 7.0.2) date 2023-10-12 22:53:16*
%MOMM*%
%LPD*%
G01*
G04 APERTURE LIST*
%ADD10C,0.150000*%
%ADD11C,0.120000*%
G04 APERTURE END LIST*
D10*
X63876190Y-77313333D02*
X65400000Y-77313333D01*
X64638095Y-78075238D02*
X64638095Y-76551428D01*
X67019047Y-77027619D02*
X67304761Y-77122857D01*
X67304761Y-77122857D02*
X67399999Y-77218095D01*
X67399999Y-77218095D02*
X67495237Y-77408571D01*
X67495237Y-77408571D02*
X67495237Y-77694285D01*
X67495237Y-77694285D02*
X67399999Y-77884761D01*
X67399999Y-77884761D02*
X67304761Y-77980000D01*
X67304761Y-77980000D02*
X67114285Y-78075238D01*
X67114285Y-78075238D02*
X66352380Y-78075238D01*
X66352380Y-78075238D02*
X66352380Y-76075238D01*
X66352380Y-76075238D02*
X67019047Y-76075238D01*
X67019047Y-76075238D02*
X67209523Y-76170476D01*
X67209523Y-76170476D02*
X67304761Y-76265714D01*
X67304761Y-76265714D02*
X67399999Y-76456190D01*
X67399999Y-76456190D02*
X67399999Y-76646666D01*
X67399999Y-76646666D02*
X67304761Y-76837142D01*
X67304761Y-76837142D02*
X67209523Y-76932380D01*
X67209523Y-76932380D02*
X67019047Y-77027619D01*
X67019047Y-77027619D02*
X66352380Y-77027619D01*
X68257142Y-77503809D02*
X69209523Y-77503809D01*
X68066666Y-78075238D02*
X68733332Y-76075238D01*
X68733332Y-76075238D02*
X69399999Y-78075238D01*
X69780952Y-76075238D02*
X70923809Y-76075238D01*
X70352380Y-78075238D02*
X70352380Y-76075238D01*
X71304762Y-76075238D02*
X72447619Y-76075238D01*
X71876190Y-78075238D02*
X71876190Y-76075238D01*
X64828571Y-81315238D02*
X63876190Y-81315238D01*
X63876190Y-81315238D02*
X63876190Y-79315238D01*
X65495238Y-81315238D02*
X65495238Y-79315238D01*
X66447619Y-81315238D02*
X66447619Y-79315238D01*
X66447619Y-79315238D02*
X67590476Y-81315238D01*
X67590476Y-81315238D02*
X67590476Y-79315238D01*
X64923809Y-82650476D02*
X64733333Y-82555238D01*
X64733333Y-82555238D02*
X64447619Y-82555238D01*
X64447619Y-82555238D02*
X64161904Y-82650476D01*
X64161904Y-82650476D02*
X63971428Y-82840952D01*
X63971428Y-82840952D02*
X63876190Y-83031428D01*
X63876190Y-83031428D02*
X63780952Y-83412380D01*
X63780952Y-83412380D02*
X63780952Y-83698095D01*
X63780952Y-83698095D02*
X63876190Y-84079047D01*
X63876190Y-84079047D02*
X63971428Y-84269523D01*
X63971428Y-84269523D02*
X64161904Y-84460000D01*
X64161904Y-84460000D02*
X64447619Y-84555238D01*
X64447619Y-84555238D02*
X64638095Y-84555238D01*
X64638095Y-84555238D02*
X64923809Y-84460000D01*
X64923809Y-84460000D02*
X65019047Y-84364761D01*
X65019047Y-84364761D02*
X65019047Y-83698095D01*
X65019047Y-83698095D02*
X64638095Y-83698095D01*
X65876190Y-84555238D02*
X65876190Y-82555238D01*
X65876190Y-82555238D02*
X67019047Y-84555238D01*
X67019047Y-84555238D02*
X67019047Y-82555238D01*
X67971428Y-84555238D02*
X67971428Y-82555238D01*
X67971428Y-82555238D02*
X68447618Y-82555238D01*
X68447618Y-82555238D02*
X68733333Y-82650476D01*
X68733333Y-82650476D02*
X68923809Y-82840952D01*
X68923809Y-82840952D02*
X69019047Y-83031428D01*
X69019047Y-83031428D02*
X69114285Y-83412380D01*
X69114285Y-83412380D02*
X69114285Y-83698095D01*
X69114285Y-83698095D02*
X69019047Y-84079047D01*
X69019047Y-84079047D02*
X68923809Y-84269523D01*
X68923809Y-84269523D02*
X68733333Y-84460000D01*
X68733333Y-84460000D02*
X68447618Y-84555238D01*
X68447618Y-84555238D02*
X67971428Y-84555238D01*
X95352380Y-82044190D02*
X95885714Y-83644190D01*
X95885714Y-83644190D02*
X96419047Y-82044190D01*
X97866667Y-83491809D02*
X97790476Y-83568000D01*
X97790476Y-83568000D02*
X97561905Y-83644190D01*
X97561905Y-83644190D02*
X97409524Y-83644190D01*
X97409524Y-83644190D02*
X97180952Y-83568000D01*
X97180952Y-83568000D02*
X97028571Y-83415619D01*
X97028571Y-83415619D02*
X96952381Y-83263238D01*
X96952381Y-83263238D02*
X96876190Y-82958476D01*
X96876190Y-82958476D02*
X96876190Y-82729904D01*
X96876190Y-82729904D02*
X96952381Y-82425142D01*
X96952381Y-82425142D02*
X97028571Y-82272761D01*
X97028571Y-82272761D02*
X97180952Y-82120380D01*
X97180952Y-82120380D02*
X97409524Y-82044190D01*
X97409524Y-82044190D02*
X97561905Y-82044190D01*
X97561905Y-82044190D02*
X97790476Y-82120380D01*
X97790476Y-82120380D02*
X97866667Y-82196571D01*
X99466667Y-83491809D02*
X99390476Y-83568000D01*
X99390476Y-83568000D02*
X99161905Y-83644190D01*
X99161905Y-83644190D02*
X99009524Y-83644190D01*
X99009524Y-83644190D02*
X98780952Y-83568000D01*
X98780952Y-83568000D02*
X98628571Y-83415619D01*
X98628571Y-83415619D02*
X98552381Y-83263238D01*
X98552381Y-83263238D02*
X98476190Y-82958476D01*
X98476190Y-82958476D02*
X98476190Y-82729904D01*
X98476190Y-82729904D02*
X98552381Y-82425142D01*
X98552381Y-82425142D02*
X98628571Y-82272761D01*
X98628571Y-82272761D02*
X98780952Y-82120380D01*
X98780952Y-82120380D02*
X99009524Y-82044190D01*
X99009524Y-82044190D02*
X99161905Y-82044190D01*
X99161905Y-82044190D02*
X99390476Y-82120380D01*
X99390476Y-82120380D02*
X99466667Y-82196571D01*
X95580952Y-85398095D02*
X96114285Y-85398095D01*
X96342857Y-86236190D02*
X95580952Y-86236190D01*
X95580952Y-86236190D02*
X95580952Y-84636190D01*
X95580952Y-84636190D02*
X96342857Y-84636190D01*
X97028571Y-86236190D02*
X97028571Y-84636190D01*
X97028571Y-84636190D02*
X97942857Y-86236190D01*
X97942857Y-86236190D02*
X97942857Y-84636190D01*
X96495238Y-88828190D02*
X95961904Y-88066285D01*
X95580952Y-88828190D02*
X95580952Y-87228190D01*
X95580952Y-87228190D02*
X96190476Y-87228190D01*
X96190476Y-87228190D02*
X96342857Y-87304380D01*
X96342857Y-87304380D02*
X96419047Y-87380571D01*
X96419047Y-87380571D02*
X96495238Y-87532952D01*
X96495238Y-87532952D02*
X96495238Y-87761523D01*
X96495238Y-87761523D02*
X96419047Y-87913904D01*
X96419047Y-87913904D02*
X96342857Y-87990095D01*
X96342857Y-87990095D02*
X96190476Y-88066285D01*
X96190476Y-88066285D02*
X95580952Y-88066285D01*
X97104761Y-88752000D02*
X97333333Y-88828190D01*
X97333333Y-88828190D02*
X97714285Y-88828190D01*
X97714285Y-88828190D02*
X97866666Y-88752000D01*
X97866666Y-88752000D02*
X97942857Y-88675809D01*
X97942857Y-88675809D02*
X98019047Y-88523428D01*
X98019047Y-88523428D02*
X98019047Y-88371047D01*
X98019047Y-88371047D02*
X97942857Y-88218666D01*
X97942857Y-88218666D02*
X97866666Y-88142476D01*
X97866666Y-88142476D02*
X97714285Y-88066285D01*
X97714285Y-88066285D02*
X97409523Y-87990095D01*
X97409523Y-87990095D02*
X97257142Y-87913904D01*
X97257142Y-87913904D02*
X97180952Y-87837714D01*
X97180952Y-87837714D02*
X97104761Y-87685333D01*
X97104761Y-87685333D02*
X97104761Y-87532952D01*
X97104761Y-87532952D02*
X97180952Y-87380571D01*
X97180952Y-87380571D02*
X97257142Y-87304380D01*
X97257142Y-87304380D02*
X97409523Y-87228190D01*
X97409523Y-87228190D02*
X97790476Y-87228190D01*
X97790476Y-87228190D02*
X98019047Y-87304380D01*
X98476190Y-87228190D02*
X99390476Y-87228190D01*
X98933333Y-88828190D02*
X98933333Y-87228190D01*
X99923810Y-88828190D02*
X99923810Y-87228190D01*
X99923810Y-87228190D02*
X100838096Y-88828190D01*
X100838096Y-88828190D02*
X100838096Y-87228190D01*
X95352380Y-89820190D02*
X96266666Y-89820190D01*
X95809523Y-91420190D02*
X95809523Y-89820190D01*
X96647619Y-89820190D02*
X97714286Y-91420190D01*
X97714286Y-89820190D02*
X96647619Y-91420190D01*
X98323810Y-91420190D02*
X98323810Y-89820190D01*
X98323810Y-89820190D02*
X98704762Y-89820190D01*
X98704762Y-89820190D02*
X98933334Y-89896380D01*
X98933334Y-89896380D02*
X99085715Y-90048761D01*
X99085715Y-90048761D02*
X99161905Y-90201142D01*
X99161905Y-90201142D02*
X99238096Y-90505904D01*
X99238096Y-90505904D02*
X99238096Y-90734476D01*
X99238096Y-90734476D02*
X99161905Y-91039238D01*
X99161905Y-91039238D02*
X99085715Y-91191619D01*
X99085715Y-91191619D02*
X98933334Y-91344000D01*
X98933334Y-91344000D02*
X98704762Y-91420190D01*
X98704762Y-91420190D02*
X98323810Y-91420190D01*
X96495238Y-94012190D02*
X95961904Y-93250285D01*
X95580952Y-94012190D02*
X95580952Y-92412190D01*
X95580952Y-92412190D02*
X96190476Y-92412190D01*
X96190476Y-92412190D02*
X96342857Y-92488380D01*
X96342857Y-92488380D02*
X96419047Y-92564571D01*
X96419047Y-92564571D02*
X96495238Y-92716952D01*
X96495238Y-92716952D02*
X96495238Y-92945523D01*
X96495238Y-92945523D02*
X96419047Y-93097904D01*
X96419047Y-93097904D02*
X96342857Y-93174095D01*
X96342857Y-93174095D02*
X96190476Y-93250285D01*
X96190476Y-93250285D02*
X95580952Y-93250285D01*
X97028571Y-92412190D02*
X98095238Y-94012190D01*
X98095238Y-92412190D02*
X97028571Y-94012190D01*
X98704762Y-94012190D02*
X98704762Y-92412190D01*
X98704762Y-92412190D02*
X99085714Y-92412190D01*
X99085714Y-92412190D02*
X99314286Y-92488380D01*
X99314286Y-92488380D02*
X99466667Y-92640761D01*
X99466667Y-92640761D02*
X99542857Y-92793142D01*
X99542857Y-92793142D02*
X99619048Y-93097904D01*
X99619048Y-93097904D02*
X99619048Y-93326476D01*
X99619048Y-93326476D02*
X99542857Y-93631238D01*
X99542857Y-93631238D02*
X99466667Y-93783619D01*
X99466667Y-93783619D02*
X99314286Y-93936000D01*
X99314286Y-93936000D02*
X99085714Y-94012190D01*
X99085714Y-94012190D02*
X98704762Y-94012190D01*
X96419047Y-95080380D02*
X96266666Y-95004190D01*
X96266666Y-95004190D02*
X96038095Y-95004190D01*
X96038095Y-95004190D02*
X95809523Y-95080380D01*
X95809523Y-95080380D02*
X95657142Y-95232761D01*
X95657142Y-95232761D02*
X95580952Y-95385142D01*
X95580952Y-95385142D02*
X95504761Y-95689904D01*
X95504761Y-95689904D02*
X95504761Y-95918476D01*
X95504761Y-95918476D02*
X95580952Y-96223238D01*
X95580952Y-96223238D02*
X95657142Y-96375619D01*
X95657142Y-96375619D02*
X95809523Y-96528000D01*
X95809523Y-96528000D02*
X96038095Y-96604190D01*
X96038095Y-96604190D02*
X96190476Y-96604190D01*
X96190476Y-96604190D02*
X96419047Y-96528000D01*
X96419047Y-96528000D02*
X96495238Y-96451809D01*
X96495238Y-96451809D02*
X96495238Y-95918476D01*
X96495238Y-95918476D02*
X96190476Y-95918476D01*
X97180952Y-96604190D02*
X97180952Y-95004190D01*
X97180952Y-95004190D02*
X98095238Y-96604190D01*
X98095238Y-96604190D02*
X98095238Y-95004190D01*
X98857142Y-96604190D02*
X98857142Y-95004190D01*
X98857142Y-95004190D02*
X99238094Y-95004190D01*
X99238094Y-95004190D02*
X99466666Y-95080380D01*
X99466666Y-95080380D02*
X99619047Y-95232761D01*
X99619047Y-95232761D02*
X99695237Y-95385142D01*
X99695237Y-95385142D02*
X99771428Y-95689904D01*
X99771428Y-95689904D02*
X99771428Y-95918476D01*
X99771428Y-95918476D02*
X99695237Y-96223238D01*
X99695237Y-96223238D02*
X99619047Y-96375619D01*
X99619047Y-96375619D02*
X99466666Y-96528000D01*
X99466666Y-96528000D02*
X99238094Y-96604190D01*
X99238094Y-96604190D02*
X98857142Y-96604190D01*
%TO.C,J103*%
X105714285Y-79937619D02*
X105714285Y-80651904D01*
X105714285Y-80651904D02*
X105666666Y-80794761D01*
X105666666Y-80794761D02*
X105571428Y-80890000D01*
X105571428Y-80890000D02*
X105428571Y-80937619D01*
X105428571Y-80937619D02*
X105333333Y-80937619D01*
X106714285Y-80937619D02*
X106142857Y-80937619D01*
X106428571Y-80937619D02*
X106428571Y-79937619D01*
X106428571Y-79937619D02*
X106333333Y-80080476D01*
X106333333Y-80080476D02*
X106238095Y-80175714D01*
X106238095Y-80175714D02*
X106142857Y-80223333D01*
X107333333Y-79937619D02*
X107428571Y-79937619D01*
X107428571Y-79937619D02*
X107523809Y-79985238D01*
X107523809Y-79985238D02*
X107571428Y-80032857D01*
X107571428Y-80032857D02*
X107619047Y-80128095D01*
X107619047Y-80128095D02*
X107666666Y-80318571D01*
X107666666Y-80318571D02*
X107666666Y-80556666D01*
X107666666Y-80556666D02*
X107619047Y-80747142D01*
X107619047Y-80747142D02*
X107571428Y-80842380D01*
X107571428Y-80842380D02*
X107523809Y-80890000D01*
X107523809Y-80890000D02*
X107428571Y-80937619D01*
X107428571Y-80937619D02*
X107333333Y-80937619D01*
X107333333Y-80937619D02*
X107238095Y-80890000D01*
X107238095Y-80890000D02*
X107190476Y-80842380D01*
X107190476Y-80842380D02*
X107142857Y-80747142D01*
X107142857Y-80747142D02*
X107095238Y-80556666D01*
X107095238Y-80556666D02*
X107095238Y-80318571D01*
X107095238Y-80318571D02*
X107142857Y-80128095D01*
X107142857Y-80128095D02*
X107190476Y-80032857D01*
X107190476Y-80032857D02*
X107238095Y-79985238D01*
X107238095Y-79985238D02*
X107333333Y-79937619D01*
X108000000Y-79937619D02*
X108619047Y-79937619D01*
X108619047Y-79937619D02*
X108285714Y-80318571D01*
X108285714Y-80318571D02*
X108428571Y-80318571D01*
X108428571Y-80318571D02*
X108523809Y-80366190D01*
X108523809Y-80366190D02*
X108571428Y-80413809D01*
X108571428Y-80413809D02*
X108619047Y-80509047D01*
X108619047Y-80509047D02*
X108619047Y-80747142D01*
X108619047Y-80747142D02*
X108571428Y-80842380D01*
X108571428Y-80842380D02*
X108523809Y-80890000D01*
X108523809Y-80890000D02*
X108428571Y-80937619D01*
X108428571Y-80937619D02*
X108142857Y-80937619D01*
X108142857Y-80937619D02*
X108047619Y-80890000D01*
X108047619Y-80890000D02*
X108000000Y-80842380D01*
%TO.C,J102*%
X101714285Y-80022619D02*
X101714285Y-80736904D01*
X101714285Y-80736904D02*
X101666666Y-80879761D01*
X101666666Y-80879761D02*
X101571428Y-80975000D01*
X101571428Y-80975000D02*
X101428571Y-81022619D01*
X101428571Y-81022619D02*
X101333333Y-81022619D01*
X102714285Y-81022619D02*
X102142857Y-81022619D01*
X102428571Y-81022619D02*
X102428571Y-80022619D01*
X102428571Y-80022619D02*
X102333333Y-80165476D01*
X102333333Y-80165476D02*
X102238095Y-80260714D01*
X102238095Y-80260714D02*
X102142857Y-80308333D01*
X103333333Y-80022619D02*
X103428571Y-80022619D01*
X103428571Y-80022619D02*
X103523809Y-80070238D01*
X103523809Y-80070238D02*
X103571428Y-80117857D01*
X103571428Y-80117857D02*
X103619047Y-80213095D01*
X103619047Y-80213095D02*
X103666666Y-80403571D01*
X103666666Y-80403571D02*
X103666666Y-80641666D01*
X103666666Y-80641666D02*
X103619047Y-80832142D01*
X103619047Y-80832142D02*
X103571428Y-80927380D01*
X103571428Y-80927380D02*
X103523809Y-80975000D01*
X103523809Y-80975000D02*
X103428571Y-81022619D01*
X103428571Y-81022619D02*
X103333333Y-81022619D01*
X103333333Y-81022619D02*
X103238095Y-80975000D01*
X103238095Y-80975000D02*
X103190476Y-80927380D01*
X103190476Y-80927380D02*
X103142857Y-80832142D01*
X103142857Y-80832142D02*
X103095238Y-80641666D01*
X103095238Y-80641666D02*
X103095238Y-80403571D01*
X103095238Y-80403571D02*
X103142857Y-80213095D01*
X103142857Y-80213095D02*
X103190476Y-80117857D01*
X103190476Y-80117857D02*
X103238095Y-80070238D01*
X103238095Y-80070238D02*
X103333333Y-80022619D01*
X104047619Y-80117857D02*
X104095238Y-80070238D01*
X104095238Y-80070238D02*
X104190476Y-80022619D01*
X104190476Y-80022619D02*
X104428571Y-80022619D01*
X104428571Y-80022619D02*
X104523809Y-80070238D01*
X104523809Y-80070238D02*
X104571428Y-80117857D01*
X104571428Y-80117857D02*
X104619047Y-80213095D01*
X104619047Y-80213095D02*
X104619047Y-80308333D01*
X104619047Y-80308333D02*
X104571428Y-80451190D01*
X104571428Y-80451190D02*
X104000000Y-81022619D01*
X104000000Y-81022619D02*
X104619047Y-81022619D01*
%TO.C,D101*%
X63862619Y-94590475D02*
X62862619Y-94590475D01*
X62862619Y-94590475D02*
X62862619Y-94352380D01*
X62862619Y-94352380D02*
X62910238Y-94209523D01*
X62910238Y-94209523D02*
X63005476Y-94114285D01*
X63005476Y-94114285D02*
X63100714Y-94066666D01*
X63100714Y-94066666D02*
X63291190Y-94019047D01*
X63291190Y-94019047D02*
X63434047Y-94019047D01*
X63434047Y-94019047D02*
X63624523Y-94066666D01*
X63624523Y-94066666D02*
X63719761Y-94114285D01*
X63719761Y-94114285D02*
X63815000Y-94209523D01*
X63815000Y-94209523D02*
X63862619Y-94352380D01*
X63862619Y-94352380D02*
X63862619Y-94590475D01*
X63862619Y-93066666D02*
X63862619Y-93638094D01*
X63862619Y-93352380D02*
X62862619Y-93352380D01*
X62862619Y-93352380D02*
X63005476Y-93447618D01*
X63005476Y-93447618D02*
X63100714Y-93542856D01*
X63100714Y-93542856D02*
X63148333Y-93638094D01*
X62862619Y-92447618D02*
X62862619Y-92352380D01*
X62862619Y-92352380D02*
X62910238Y-92257142D01*
X62910238Y-92257142D02*
X62957857Y-92209523D01*
X62957857Y-92209523D02*
X63053095Y-92161904D01*
X63053095Y-92161904D02*
X63243571Y-92114285D01*
X63243571Y-92114285D02*
X63481666Y-92114285D01*
X63481666Y-92114285D02*
X63672142Y-92161904D01*
X63672142Y-92161904D02*
X63767380Y-92209523D01*
X63767380Y-92209523D02*
X63815000Y-92257142D01*
X63815000Y-92257142D02*
X63862619Y-92352380D01*
X63862619Y-92352380D02*
X63862619Y-92447618D01*
X63862619Y-92447618D02*
X63815000Y-92542856D01*
X63815000Y-92542856D02*
X63767380Y-92590475D01*
X63767380Y-92590475D02*
X63672142Y-92638094D01*
X63672142Y-92638094D02*
X63481666Y-92685713D01*
X63481666Y-92685713D02*
X63243571Y-92685713D01*
X63243571Y-92685713D02*
X63053095Y-92638094D01*
X63053095Y-92638094D02*
X62957857Y-92590475D01*
X62957857Y-92590475D02*
X62910238Y-92542856D01*
X62910238Y-92542856D02*
X62862619Y-92447618D01*
X63862619Y-91161904D02*
X63862619Y-91733332D01*
X63862619Y-91447618D02*
X62862619Y-91447618D01*
X62862619Y-91447618D02*
X63005476Y-91542856D01*
X63005476Y-91542856D02*
X63100714Y-91638094D01*
X63100714Y-91638094D02*
X63148333Y-91733332D01*
%TO.C,R104*%
X80662619Y-83744047D02*
X80186428Y-84077380D01*
X80662619Y-84315475D02*
X79662619Y-84315475D01*
X79662619Y-84315475D02*
X79662619Y-83934523D01*
X79662619Y-83934523D02*
X79710238Y-83839285D01*
X79710238Y-83839285D02*
X79757857Y-83791666D01*
X79757857Y-83791666D02*
X79853095Y-83744047D01*
X79853095Y-83744047D02*
X79995952Y-83744047D01*
X79995952Y-83744047D02*
X80091190Y-83791666D01*
X80091190Y-83791666D02*
X80138809Y-83839285D01*
X80138809Y-83839285D02*
X80186428Y-83934523D01*
X80186428Y-83934523D02*
X80186428Y-84315475D01*
X80662619Y-82791666D02*
X80662619Y-83363094D01*
X80662619Y-83077380D02*
X79662619Y-83077380D01*
X79662619Y-83077380D02*
X79805476Y-83172618D01*
X79805476Y-83172618D02*
X79900714Y-83267856D01*
X79900714Y-83267856D02*
X79948333Y-83363094D01*
X79662619Y-82172618D02*
X79662619Y-82077380D01*
X79662619Y-82077380D02*
X79710238Y-81982142D01*
X79710238Y-81982142D02*
X79757857Y-81934523D01*
X79757857Y-81934523D02*
X79853095Y-81886904D01*
X79853095Y-81886904D02*
X80043571Y-81839285D01*
X80043571Y-81839285D02*
X80281666Y-81839285D01*
X80281666Y-81839285D02*
X80472142Y-81886904D01*
X80472142Y-81886904D02*
X80567380Y-81934523D01*
X80567380Y-81934523D02*
X80615000Y-81982142D01*
X80615000Y-81982142D02*
X80662619Y-82077380D01*
X80662619Y-82077380D02*
X80662619Y-82172618D01*
X80662619Y-82172618D02*
X80615000Y-82267856D01*
X80615000Y-82267856D02*
X80567380Y-82315475D01*
X80567380Y-82315475D02*
X80472142Y-82363094D01*
X80472142Y-82363094D02*
X80281666Y-82410713D01*
X80281666Y-82410713D02*
X80043571Y-82410713D01*
X80043571Y-82410713D02*
X79853095Y-82363094D01*
X79853095Y-82363094D02*
X79757857Y-82315475D01*
X79757857Y-82315475D02*
X79710238Y-82267856D01*
X79710238Y-82267856D02*
X79662619Y-82172618D01*
X79995952Y-80982142D02*
X80662619Y-80982142D01*
X79615000Y-81220237D02*
X80329285Y-81458332D01*
X80329285Y-81458332D02*
X80329285Y-80839285D01*
%TO.C,R103*%
X85492619Y-83744047D02*
X85016428Y-84077380D01*
X85492619Y-84315475D02*
X84492619Y-84315475D01*
X84492619Y-84315475D02*
X84492619Y-83934523D01*
X84492619Y-83934523D02*
X84540238Y-83839285D01*
X84540238Y-83839285D02*
X84587857Y-83791666D01*
X84587857Y-83791666D02*
X84683095Y-83744047D01*
X84683095Y-83744047D02*
X84825952Y-83744047D01*
X84825952Y-83744047D02*
X84921190Y-83791666D01*
X84921190Y-83791666D02*
X84968809Y-83839285D01*
X84968809Y-83839285D02*
X85016428Y-83934523D01*
X85016428Y-83934523D02*
X85016428Y-84315475D01*
X85492619Y-82791666D02*
X85492619Y-83363094D01*
X85492619Y-83077380D02*
X84492619Y-83077380D01*
X84492619Y-83077380D02*
X84635476Y-83172618D01*
X84635476Y-83172618D02*
X84730714Y-83267856D01*
X84730714Y-83267856D02*
X84778333Y-83363094D01*
X84492619Y-82172618D02*
X84492619Y-82077380D01*
X84492619Y-82077380D02*
X84540238Y-81982142D01*
X84540238Y-81982142D02*
X84587857Y-81934523D01*
X84587857Y-81934523D02*
X84683095Y-81886904D01*
X84683095Y-81886904D02*
X84873571Y-81839285D01*
X84873571Y-81839285D02*
X85111666Y-81839285D01*
X85111666Y-81839285D02*
X85302142Y-81886904D01*
X85302142Y-81886904D02*
X85397380Y-81934523D01*
X85397380Y-81934523D02*
X85445000Y-81982142D01*
X85445000Y-81982142D02*
X85492619Y-82077380D01*
X85492619Y-82077380D02*
X85492619Y-82172618D01*
X85492619Y-82172618D02*
X85445000Y-82267856D01*
X85445000Y-82267856D02*
X85397380Y-82315475D01*
X85397380Y-82315475D02*
X85302142Y-82363094D01*
X85302142Y-82363094D02*
X85111666Y-82410713D01*
X85111666Y-82410713D02*
X84873571Y-82410713D01*
X84873571Y-82410713D02*
X84683095Y-82363094D01*
X84683095Y-82363094D02*
X84587857Y-82315475D01*
X84587857Y-82315475D02*
X84540238Y-82267856D01*
X84540238Y-82267856D02*
X84492619Y-82172618D01*
X84492619Y-81505951D02*
X84492619Y-80886904D01*
X84492619Y-80886904D02*
X84873571Y-81220237D01*
X84873571Y-81220237D02*
X84873571Y-81077380D01*
X84873571Y-81077380D02*
X84921190Y-80982142D01*
X84921190Y-80982142D02*
X84968809Y-80934523D01*
X84968809Y-80934523D02*
X85064047Y-80886904D01*
X85064047Y-80886904D02*
X85302142Y-80886904D01*
X85302142Y-80886904D02*
X85397380Y-80934523D01*
X85397380Y-80934523D02*
X85445000Y-80982142D01*
X85445000Y-80982142D02*
X85492619Y-81077380D01*
X85492619Y-81077380D02*
X85492619Y-81363094D01*
X85492619Y-81363094D02*
X85445000Y-81458332D01*
X85445000Y-81458332D02*
X85397380Y-81505951D01*
%TO.C,R102*%
X73480952Y-90057619D02*
X73147619Y-89581428D01*
X72909524Y-90057619D02*
X72909524Y-89057619D01*
X72909524Y-89057619D02*
X73290476Y-89057619D01*
X73290476Y-89057619D02*
X73385714Y-89105238D01*
X73385714Y-89105238D02*
X73433333Y-89152857D01*
X73433333Y-89152857D02*
X73480952Y-89248095D01*
X73480952Y-89248095D02*
X73480952Y-89390952D01*
X73480952Y-89390952D02*
X73433333Y-89486190D01*
X73433333Y-89486190D02*
X73385714Y-89533809D01*
X73385714Y-89533809D02*
X73290476Y-89581428D01*
X73290476Y-89581428D02*
X72909524Y-89581428D01*
X74433333Y-90057619D02*
X73861905Y-90057619D01*
X74147619Y-90057619D02*
X74147619Y-89057619D01*
X74147619Y-89057619D02*
X74052381Y-89200476D01*
X74052381Y-89200476D02*
X73957143Y-89295714D01*
X73957143Y-89295714D02*
X73861905Y-89343333D01*
X75052381Y-89057619D02*
X75147619Y-89057619D01*
X75147619Y-89057619D02*
X75242857Y-89105238D01*
X75242857Y-89105238D02*
X75290476Y-89152857D01*
X75290476Y-89152857D02*
X75338095Y-89248095D01*
X75338095Y-89248095D02*
X75385714Y-89438571D01*
X75385714Y-89438571D02*
X75385714Y-89676666D01*
X75385714Y-89676666D02*
X75338095Y-89867142D01*
X75338095Y-89867142D02*
X75290476Y-89962380D01*
X75290476Y-89962380D02*
X75242857Y-90010000D01*
X75242857Y-90010000D02*
X75147619Y-90057619D01*
X75147619Y-90057619D02*
X75052381Y-90057619D01*
X75052381Y-90057619D02*
X74957143Y-90010000D01*
X74957143Y-90010000D02*
X74909524Y-89962380D01*
X74909524Y-89962380D02*
X74861905Y-89867142D01*
X74861905Y-89867142D02*
X74814286Y-89676666D01*
X74814286Y-89676666D02*
X74814286Y-89438571D01*
X74814286Y-89438571D02*
X74861905Y-89248095D01*
X74861905Y-89248095D02*
X74909524Y-89152857D01*
X74909524Y-89152857D02*
X74957143Y-89105238D01*
X74957143Y-89105238D02*
X75052381Y-89057619D01*
X75766667Y-89152857D02*
X75814286Y-89105238D01*
X75814286Y-89105238D02*
X75909524Y-89057619D01*
X75909524Y-89057619D02*
X76147619Y-89057619D01*
X76147619Y-89057619D02*
X76242857Y-89105238D01*
X76242857Y-89105238D02*
X76290476Y-89152857D01*
X76290476Y-89152857D02*
X76338095Y-89248095D01*
X76338095Y-89248095D02*
X76338095Y-89343333D01*
X76338095Y-89343333D02*
X76290476Y-89486190D01*
X76290476Y-89486190D02*
X75719048Y-90057619D01*
X75719048Y-90057619D02*
X76338095Y-90057619D01*
%TO.C,R101*%
X72462619Y-84944047D02*
X71986428Y-85277380D01*
X72462619Y-85515475D02*
X71462619Y-85515475D01*
X71462619Y-85515475D02*
X71462619Y-85134523D01*
X71462619Y-85134523D02*
X71510238Y-85039285D01*
X71510238Y-85039285D02*
X71557857Y-84991666D01*
X71557857Y-84991666D02*
X71653095Y-84944047D01*
X71653095Y-84944047D02*
X71795952Y-84944047D01*
X71795952Y-84944047D02*
X71891190Y-84991666D01*
X71891190Y-84991666D02*
X71938809Y-85039285D01*
X71938809Y-85039285D02*
X71986428Y-85134523D01*
X71986428Y-85134523D02*
X71986428Y-85515475D01*
X72462619Y-83991666D02*
X72462619Y-84563094D01*
X72462619Y-84277380D02*
X71462619Y-84277380D01*
X71462619Y-84277380D02*
X71605476Y-84372618D01*
X71605476Y-84372618D02*
X71700714Y-84467856D01*
X71700714Y-84467856D02*
X71748333Y-84563094D01*
X71462619Y-83372618D02*
X71462619Y-83277380D01*
X71462619Y-83277380D02*
X71510238Y-83182142D01*
X71510238Y-83182142D02*
X71557857Y-83134523D01*
X71557857Y-83134523D02*
X71653095Y-83086904D01*
X71653095Y-83086904D02*
X71843571Y-83039285D01*
X71843571Y-83039285D02*
X72081666Y-83039285D01*
X72081666Y-83039285D02*
X72272142Y-83086904D01*
X72272142Y-83086904D02*
X72367380Y-83134523D01*
X72367380Y-83134523D02*
X72415000Y-83182142D01*
X72415000Y-83182142D02*
X72462619Y-83277380D01*
X72462619Y-83277380D02*
X72462619Y-83372618D01*
X72462619Y-83372618D02*
X72415000Y-83467856D01*
X72415000Y-83467856D02*
X72367380Y-83515475D01*
X72367380Y-83515475D02*
X72272142Y-83563094D01*
X72272142Y-83563094D02*
X72081666Y-83610713D01*
X72081666Y-83610713D02*
X71843571Y-83610713D01*
X71843571Y-83610713D02*
X71653095Y-83563094D01*
X71653095Y-83563094D02*
X71557857Y-83515475D01*
X71557857Y-83515475D02*
X71510238Y-83467856D01*
X71510238Y-83467856D02*
X71462619Y-83372618D01*
X72462619Y-82086904D02*
X72462619Y-82658332D01*
X72462619Y-82372618D02*
X71462619Y-82372618D01*
X71462619Y-82372618D02*
X71605476Y-82467856D01*
X71605476Y-82467856D02*
X71700714Y-82563094D01*
X71700714Y-82563094D02*
X71748333Y-82658332D01*
%TO.C,U101*%
X80860714Y-84992619D02*
X80860714Y-85802142D01*
X80860714Y-85802142D02*
X80908333Y-85897380D01*
X80908333Y-85897380D02*
X80955952Y-85945000D01*
X80955952Y-85945000D02*
X81051190Y-85992619D01*
X81051190Y-85992619D02*
X81241666Y-85992619D01*
X81241666Y-85992619D02*
X81336904Y-85945000D01*
X81336904Y-85945000D02*
X81384523Y-85897380D01*
X81384523Y-85897380D02*
X81432142Y-85802142D01*
X81432142Y-85802142D02*
X81432142Y-84992619D01*
X82432142Y-85992619D02*
X81860714Y-85992619D01*
X82146428Y-85992619D02*
X82146428Y-84992619D01*
X82146428Y-84992619D02*
X82051190Y-85135476D01*
X82051190Y-85135476D02*
X81955952Y-85230714D01*
X81955952Y-85230714D02*
X81860714Y-85278333D01*
X83051190Y-84992619D02*
X83146428Y-84992619D01*
X83146428Y-84992619D02*
X83241666Y-85040238D01*
X83241666Y-85040238D02*
X83289285Y-85087857D01*
X83289285Y-85087857D02*
X83336904Y-85183095D01*
X83336904Y-85183095D02*
X83384523Y-85373571D01*
X83384523Y-85373571D02*
X83384523Y-85611666D01*
X83384523Y-85611666D02*
X83336904Y-85802142D01*
X83336904Y-85802142D02*
X83289285Y-85897380D01*
X83289285Y-85897380D02*
X83241666Y-85945000D01*
X83241666Y-85945000D02*
X83146428Y-85992619D01*
X83146428Y-85992619D02*
X83051190Y-85992619D01*
X83051190Y-85992619D02*
X82955952Y-85945000D01*
X82955952Y-85945000D02*
X82908333Y-85897380D01*
X82908333Y-85897380D02*
X82860714Y-85802142D01*
X82860714Y-85802142D02*
X82813095Y-85611666D01*
X82813095Y-85611666D02*
X82813095Y-85373571D01*
X82813095Y-85373571D02*
X82860714Y-85183095D01*
X82860714Y-85183095D02*
X82908333Y-85087857D01*
X82908333Y-85087857D02*
X82955952Y-85040238D01*
X82955952Y-85040238D02*
X83051190Y-84992619D01*
X84336904Y-85992619D02*
X83765476Y-85992619D01*
X84051190Y-85992619D02*
X84051190Y-84992619D01*
X84051190Y-84992619D02*
X83955952Y-85135476D01*
X83955952Y-85135476D02*
X83860714Y-85230714D01*
X83860714Y-85230714D02*
X83765476Y-85278333D01*
%TO.C,J101*%
X59314285Y-97887619D02*
X59314285Y-98601904D01*
X59314285Y-98601904D02*
X59266666Y-98744761D01*
X59266666Y-98744761D02*
X59171428Y-98840000D01*
X59171428Y-98840000D02*
X59028571Y-98887619D01*
X59028571Y-98887619D02*
X58933333Y-98887619D01*
X60314285Y-98887619D02*
X59742857Y-98887619D01*
X60028571Y-98887619D02*
X60028571Y-97887619D01*
X60028571Y-97887619D02*
X59933333Y-98030476D01*
X59933333Y-98030476D02*
X59838095Y-98125714D01*
X59838095Y-98125714D02*
X59742857Y-98173333D01*
X60933333Y-97887619D02*
X61028571Y-97887619D01*
X61028571Y-97887619D02*
X61123809Y-97935238D01*
X61123809Y-97935238D02*
X61171428Y-97982857D01*
X61171428Y-97982857D02*
X61219047Y-98078095D01*
X61219047Y-98078095D02*
X61266666Y-98268571D01*
X61266666Y-98268571D02*
X61266666Y-98506666D01*
X61266666Y-98506666D02*
X61219047Y-98697142D01*
X61219047Y-98697142D02*
X61171428Y-98792380D01*
X61171428Y-98792380D02*
X61123809Y-98840000D01*
X61123809Y-98840000D02*
X61028571Y-98887619D01*
X61028571Y-98887619D02*
X60933333Y-98887619D01*
X60933333Y-98887619D02*
X60838095Y-98840000D01*
X60838095Y-98840000D02*
X60790476Y-98792380D01*
X60790476Y-98792380D02*
X60742857Y-98697142D01*
X60742857Y-98697142D02*
X60695238Y-98506666D01*
X60695238Y-98506666D02*
X60695238Y-98268571D01*
X60695238Y-98268571D02*
X60742857Y-98078095D01*
X60742857Y-98078095D02*
X60790476Y-97982857D01*
X60790476Y-97982857D02*
X60838095Y-97935238D01*
X60838095Y-97935238D02*
X60933333Y-97887619D01*
X62219047Y-98887619D02*
X61647619Y-98887619D01*
X61933333Y-98887619D02*
X61933333Y-97887619D01*
X61933333Y-97887619D02*
X61838095Y-98030476D01*
X61838095Y-98030476D02*
X61742857Y-98125714D01*
X61742857Y-98125714D02*
X61647619Y-98173333D01*
%TO.C,C104*%
X88567380Y-83544047D02*
X88615000Y-83591666D01*
X88615000Y-83591666D02*
X88662619Y-83734523D01*
X88662619Y-83734523D02*
X88662619Y-83829761D01*
X88662619Y-83829761D02*
X88615000Y-83972618D01*
X88615000Y-83972618D02*
X88519761Y-84067856D01*
X88519761Y-84067856D02*
X88424523Y-84115475D01*
X88424523Y-84115475D02*
X88234047Y-84163094D01*
X88234047Y-84163094D02*
X88091190Y-84163094D01*
X88091190Y-84163094D02*
X87900714Y-84115475D01*
X87900714Y-84115475D02*
X87805476Y-84067856D01*
X87805476Y-84067856D02*
X87710238Y-83972618D01*
X87710238Y-83972618D02*
X87662619Y-83829761D01*
X87662619Y-83829761D02*
X87662619Y-83734523D01*
X87662619Y-83734523D02*
X87710238Y-83591666D01*
X87710238Y-83591666D02*
X87757857Y-83544047D01*
X88662619Y-82591666D02*
X88662619Y-83163094D01*
X88662619Y-82877380D02*
X87662619Y-82877380D01*
X87662619Y-82877380D02*
X87805476Y-82972618D01*
X87805476Y-82972618D02*
X87900714Y-83067856D01*
X87900714Y-83067856D02*
X87948333Y-83163094D01*
X87662619Y-81972618D02*
X87662619Y-81877380D01*
X87662619Y-81877380D02*
X87710238Y-81782142D01*
X87710238Y-81782142D02*
X87757857Y-81734523D01*
X87757857Y-81734523D02*
X87853095Y-81686904D01*
X87853095Y-81686904D02*
X88043571Y-81639285D01*
X88043571Y-81639285D02*
X88281666Y-81639285D01*
X88281666Y-81639285D02*
X88472142Y-81686904D01*
X88472142Y-81686904D02*
X88567380Y-81734523D01*
X88567380Y-81734523D02*
X88615000Y-81782142D01*
X88615000Y-81782142D02*
X88662619Y-81877380D01*
X88662619Y-81877380D02*
X88662619Y-81972618D01*
X88662619Y-81972618D02*
X88615000Y-82067856D01*
X88615000Y-82067856D02*
X88567380Y-82115475D01*
X88567380Y-82115475D02*
X88472142Y-82163094D01*
X88472142Y-82163094D02*
X88281666Y-82210713D01*
X88281666Y-82210713D02*
X88043571Y-82210713D01*
X88043571Y-82210713D02*
X87853095Y-82163094D01*
X87853095Y-82163094D02*
X87757857Y-82115475D01*
X87757857Y-82115475D02*
X87710238Y-82067856D01*
X87710238Y-82067856D02*
X87662619Y-81972618D01*
X87995952Y-80782142D02*
X88662619Y-80782142D01*
X87615000Y-81020237D02*
X88329285Y-81258332D01*
X88329285Y-81258332D02*
X88329285Y-80639285D01*
%TO.C,C103*%
X76137380Y-86944047D02*
X76185000Y-86991666D01*
X76185000Y-86991666D02*
X76232619Y-87134523D01*
X76232619Y-87134523D02*
X76232619Y-87229761D01*
X76232619Y-87229761D02*
X76185000Y-87372618D01*
X76185000Y-87372618D02*
X76089761Y-87467856D01*
X76089761Y-87467856D02*
X75994523Y-87515475D01*
X75994523Y-87515475D02*
X75804047Y-87563094D01*
X75804047Y-87563094D02*
X75661190Y-87563094D01*
X75661190Y-87563094D02*
X75470714Y-87515475D01*
X75470714Y-87515475D02*
X75375476Y-87467856D01*
X75375476Y-87467856D02*
X75280238Y-87372618D01*
X75280238Y-87372618D02*
X75232619Y-87229761D01*
X75232619Y-87229761D02*
X75232619Y-87134523D01*
X75232619Y-87134523D02*
X75280238Y-86991666D01*
X75280238Y-86991666D02*
X75327857Y-86944047D01*
X76232619Y-85991666D02*
X76232619Y-86563094D01*
X76232619Y-86277380D02*
X75232619Y-86277380D01*
X75232619Y-86277380D02*
X75375476Y-86372618D01*
X75375476Y-86372618D02*
X75470714Y-86467856D01*
X75470714Y-86467856D02*
X75518333Y-86563094D01*
X75232619Y-85372618D02*
X75232619Y-85277380D01*
X75232619Y-85277380D02*
X75280238Y-85182142D01*
X75280238Y-85182142D02*
X75327857Y-85134523D01*
X75327857Y-85134523D02*
X75423095Y-85086904D01*
X75423095Y-85086904D02*
X75613571Y-85039285D01*
X75613571Y-85039285D02*
X75851666Y-85039285D01*
X75851666Y-85039285D02*
X76042142Y-85086904D01*
X76042142Y-85086904D02*
X76137380Y-85134523D01*
X76137380Y-85134523D02*
X76185000Y-85182142D01*
X76185000Y-85182142D02*
X76232619Y-85277380D01*
X76232619Y-85277380D02*
X76232619Y-85372618D01*
X76232619Y-85372618D02*
X76185000Y-85467856D01*
X76185000Y-85467856D02*
X76137380Y-85515475D01*
X76137380Y-85515475D02*
X76042142Y-85563094D01*
X76042142Y-85563094D02*
X75851666Y-85610713D01*
X75851666Y-85610713D02*
X75613571Y-85610713D01*
X75613571Y-85610713D02*
X75423095Y-85563094D01*
X75423095Y-85563094D02*
X75327857Y-85515475D01*
X75327857Y-85515475D02*
X75280238Y-85467856D01*
X75280238Y-85467856D02*
X75232619Y-85372618D01*
X75232619Y-84705951D02*
X75232619Y-84086904D01*
X75232619Y-84086904D02*
X75613571Y-84420237D01*
X75613571Y-84420237D02*
X75613571Y-84277380D01*
X75613571Y-84277380D02*
X75661190Y-84182142D01*
X75661190Y-84182142D02*
X75708809Y-84134523D01*
X75708809Y-84134523D02*
X75804047Y-84086904D01*
X75804047Y-84086904D02*
X76042142Y-84086904D01*
X76042142Y-84086904D02*
X76137380Y-84134523D01*
X76137380Y-84134523D02*
X76185000Y-84182142D01*
X76185000Y-84182142D02*
X76232619Y-84277380D01*
X76232619Y-84277380D02*
X76232619Y-84563094D01*
X76232619Y-84563094D02*
X76185000Y-84658332D01*
X76185000Y-84658332D02*
X76137380Y-84705951D01*
%TO.C,C102*%
X77367380Y-96544047D02*
X77415000Y-96591666D01*
X77415000Y-96591666D02*
X77462619Y-96734523D01*
X77462619Y-96734523D02*
X77462619Y-96829761D01*
X77462619Y-96829761D02*
X77415000Y-96972618D01*
X77415000Y-96972618D02*
X77319761Y-97067856D01*
X77319761Y-97067856D02*
X77224523Y-97115475D01*
X77224523Y-97115475D02*
X77034047Y-97163094D01*
X77034047Y-97163094D02*
X76891190Y-97163094D01*
X76891190Y-97163094D02*
X76700714Y-97115475D01*
X76700714Y-97115475D02*
X76605476Y-97067856D01*
X76605476Y-97067856D02*
X76510238Y-96972618D01*
X76510238Y-96972618D02*
X76462619Y-96829761D01*
X76462619Y-96829761D02*
X76462619Y-96734523D01*
X76462619Y-96734523D02*
X76510238Y-96591666D01*
X76510238Y-96591666D02*
X76557857Y-96544047D01*
X77462619Y-95591666D02*
X77462619Y-96163094D01*
X77462619Y-95877380D02*
X76462619Y-95877380D01*
X76462619Y-95877380D02*
X76605476Y-95972618D01*
X76605476Y-95972618D02*
X76700714Y-96067856D01*
X76700714Y-96067856D02*
X76748333Y-96163094D01*
X76462619Y-94972618D02*
X76462619Y-94877380D01*
X76462619Y-94877380D02*
X76510238Y-94782142D01*
X76510238Y-94782142D02*
X76557857Y-94734523D01*
X76557857Y-94734523D02*
X76653095Y-94686904D01*
X76653095Y-94686904D02*
X76843571Y-94639285D01*
X76843571Y-94639285D02*
X77081666Y-94639285D01*
X77081666Y-94639285D02*
X77272142Y-94686904D01*
X77272142Y-94686904D02*
X77367380Y-94734523D01*
X77367380Y-94734523D02*
X77415000Y-94782142D01*
X77415000Y-94782142D02*
X77462619Y-94877380D01*
X77462619Y-94877380D02*
X77462619Y-94972618D01*
X77462619Y-94972618D02*
X77415000Y-95067856D01*
X77415000Y-95067856D02*
X77367380Y-95115475D01*
X77367380Y-95115475D02*
X77272142Y-95163094D01*
X77272142Y-95163094D02*
X77081666Y-95210713D01*
X77081666Y-95210713D02*
X76843571Y-95210713D01*
X76843571Y-95210713D02*
X76653095Y-95163094D01*
X76653095Y-95163094D02*
X76557857Y-95115475D01*
X76557857Y-95115475D02*
X76510238Y-95067856D01*
X76510238Y-95067856D02*
X76462619Y-94972618D01*
X76557857Y-94258332D02*
X76510238Y-94210713D01*
X76510238Y-94210713D02*
X76462619Y-94115475D01*
X76462619Y-94115475D02*
X76462619Y-93877380D01*
X76462619Y-93877380D02*
X76510238Y-93782142D01*
X76510238Y-93782142D02*
X76557857Y-93734523D01*
X76557857Y-93734523D02*
X76653095Y-93686904D01*
X76653095Y-93686904D02*
X76748333Y-93686904D01*
X76748333Y-93686904D02*
X76891190Y-93734523D01*
X76891190Y-93734523D02*
X77462619Y-94305951D01*
X77462619Y-94305951D02*
X77462619Y-93686904D01*
%TO.C,C101*%
X72567380Y-96344047D02*
X72615000Y-96391666D01*
X72615000Y-96391666D02*
X72662619Y-96534523D01*
X72662619Y-96534523D02*
X72662619Y-96629761D01*
X72662619Y-96629761D02*
X72615000Y-96772618D01*
X72615000Y-96772618D02*
X72519761Y-96867856D01*
X72519761Y-96867856D02*
X72424523Y-96915475D01*
X72424523Y-96915475D02*
X72234047Y-96963094D01*
X72234047Y-96963094D02*
X72091190Y-96963094D01*
X72091190Y-96963094D02*
X71900714Y-96915475D01*
X71900714Y-96915475D02*
X71805476Y-96867856D01*
X71805476Y-96867856D02*
X71710238Y-96772618D01*
X71710238Y-96772618D02*
X71662619Y-96629761D01*
X71662619Y-96629761D02*
X71662619Y-96534523D01*
X71662619Y-96534523D02*
X71710238Y-96391666D01*
X71710238Y-96391666D02*
X71757857Y-96344047D01*
X72662619Y-95391666D02*
X72662619Y-95963094D01*
X72662619Y-95677380D02*
X71662619Y-95677380D01*
X71662619Y-95677380D02*
X71805476Y-95772618D01*
X71805476Y-95772618D02*
X71900714Y-95867856D01*
X71900714Y-95867856D02*
X71948333Y-95963094D01*
X71662619Y-94772618D02*
X71662619Y-94677380D01*
X71662619Y-94677380D02*
X71710238Y-94582142D01*
X71710238Y-94582142D02*
X71757857Y-94534523D01*
X71757857Y-94534523D02*
X71853095Y-94486904D01*
X71853095Y-94486904D02*
X72043571Y-94439285D01*
X72043571Y-94439285D02*
X72281666Y-94439285D01*
X72281666Y-94439285D02*
X72472142Y-94486904D01*
X72472142Y-94486904D02*
X72567380Y-94534523D01*
X72567380Y-94534523D02*
X72615000Y-94582142D01*
X72615000Y-94582142D02*
X72662619Y-94677380D01*
X72662619Y-94677380D02*
X72662619Y-94772618D01*
X72662619Y-94772618D02*
X72615000Y-94867856D01*
X72615000Y-94867856D02*
X72567380Y-94915475D01*
X72567380Y-94915475D02*
X72472142Y-94963094D01*
X72472142Y-94963094D02*
X72281666Y-95010713D01*
X72281666Y-95010713D02*
X72043571Y-95010713D01*
X72043571Y-95010713D02*
X71853095Y-94963094D01*
X71853095Y-94963094D02*
X71757857Y-94915475D01*
X71757857Y-94915475D02*
X71710238Y-94867856D01*
X71710238Y-94867856D02*
X71662619Y-94772618D01*
X72662619Y-93486904D02*
X72662619Y-94058332D01*
X72662619Y-93772618D02*
X71662619Y-93772618D01*
X71662619Y-93772618D02*
X71805476Y-93867856D01*
X71805476Y-93867856D02*
X71900714Y-93963094D01*
X71900714Y-93963094D02*
X71948333Y-94058332D01*
D11*
%TO.C,J103*%
X105670000Y-84075000D02*
X105670000Y-96835000D01*
X105670000Y-82805000D02*
X105670000Y-81475000D01*
X105670000Y-81475000D02*
X107000000Y-81475000D01*
X105670000Y-84075000D02*
X108330000Y-84075000D01*
X105670000Y-96835000D02*
X108330000Y-96835000D01*
X108330000Y-84075000D02*
X108330000Y-96835000D01*
%TO.C,J102*%
X101670000Y-84160000D02*
X101670000Y-96920000D01*
X101670000Y-82890000D02*
X101670000Y-81560000D01*
X101670000Y-81560000D02*
X103000000Y-81560000D01*
X101670000Y-84160000D02*
X104330000Y-84160000D01*
X101670000Y-96920000D02*
X104330000Y-96920000D01*
X104330000Y-84160000D02*
X104330000Y-96920000D01*
%TO.C,D101*%
X64250000Y-97860000D02*
X64250000Y-90200000D01*
X64250000Y-97860000D02*
X68550000Y-97860000D01*
X68550000Y-97860000D02*
X68550000Y-90200000D01*
%TO.C,R104*%
X81277500Y-82387742D02*
X81277500Y-82862258D01*
X82322500Y-82387742D02*
X82322500Y-82862258D01*
%TO.C,R103*%
X84122500Y-82387742D02*
X84122500Y-82862258D01*
X83077500Y-82387742D02*
X83077500Y-82862258D01*
%TO.C,R102*%
X74362742Y-91547500D02*
X74837258Y-91547500D01*
X74362742Y-90502500D02*
X74837258Y-90502500D01*
%TO.C,R101*%
X71477500Y-87187742D02*
X71477500Y-87662258D01*
X72522500Y-87187742D02*
X72522500Y-87662258D01*
%TO.C,U101*%
X82575000Y-86370000D02*
X84525000Y-86370000D01*
X82575000Y-91490000D02*
X80625000Y-91490000D01*
X82575000Y-91490000D02*
X84525000Y-91490000D01*
X82575000Y-86370000D02*
X79125000Y-86370000D01*
%TO.C,J101*%
X62010000Y-81925000D02*
X62010000Y-97165000D01*
X54390000Y-97165000D02*
X62010000Y-97165000D01*
X55660000Y-81925000D02*
X55660000Y-97165000D01*
X54390000Y-81925000D02*
X54390000Y-97165000D01*
X54390000Y-81925000D02*
X62010000Y-81925000D01*
%TO.C,C104*%
X88710000Y-85965580D02*
X88710000Y-85684420D01*
X87690000Y-85965580D02*
X87690000Y-85684420D01*
%TO.C,C103*%
X77710000Y-85965580D02*
X77710000Y-85684420D01*
X76690000Y-85965580D02*
X76690000Y-85684420D01*
%TO.C,C102*%
X76490000Y-91684420D02*
X76490000Y-91965580D01*
X77510000Y-91684420D02*
X77510000Y-91965580D01*
%TO.C,C101*%
X71490000Y-91684420D02*
X71490000Y-91965580D01*
X72510000Y-91684420D02*
X72510000Y-91965580D01*
%TD*%
M02*
