%TF.GenerationSoftware,KiCad,Pcbnew,7.0.2*%
%TF.CreationDate,2023-10-12T22:53:16+02:00*%
%TF.ProjectId,tja1018-breakout,746a6131-3031-4382-9d62-7265616b6f75,rev?*%
%TF.SameCoordinates,Original*%
%TF.FileFunction,Copper,L1,Top*%
%TF.FilePolarity,Positive*%
%FSLAX46Y46*%
G04 Gerber Fmt 4.6, Leading zero omitted, Abs format (unit mm)*
G04 Created by KiCad (PCBNEW 7.0.2) date 2023-10-12 22:53:16*
%MOMM*%
%LPD*%
G01*
G04 APERTURE LIST*
G04 Aperture macros list*
%AMRoundRect*
0 Rectangle with rounded corners*
0 $1 Rounding radius*
0 $2 $3 $4 $5 $6 $7 $8 $9 X,Y pos of 4 corners*
0 Add a 4 corners polygon primitive as box body*
4,1,4,$2,$3,$4,$5,$6,$7,$8,$9,$2,$3,0*
0 Add four circle primitives for the rounded corners*
1,1,$1+$1,$2,$3*
1,1,$1+$1,$4,$5*
1,1,$1+$1,$6,$7*
1,1,$1+$1,$8,$9*
0 Add four rect primitives between the rounded corners*
20,1,$1+$1,$2,$3,$4,$5,0*
20,1,$1+$1,$4,$5,$6,$7,0*
20,1,$1+$1,$6,$7,$8,$9,0*
20,1,$1+$1,$8,$9,$2,$3,0*%
%AMOutline4P*
0 Free polygon, 4 corners , with rotation*
0 The origin of the aperture is its center*
0 number of corners: always 4*
0 $1 to $8 corner X, Y*
0 $9 Rotation angle, in degrees counterclockwise*
0 create outline with 4 corners*
4,1,4,$1,$2,$3,$4,$5,$6,$7,$8,$1,$2,$9*%
G04 Aperture macros list end*
%TA.AperFunction,ComponentPad*%
%ADD10R,1.700000X1.700000*%
%TD*%
%TA.AperFunction,ComponentPad*%
%ADD11O,1.700000X1.700000*%
%TD*%
%TA.AperFunction,SMDPad,CuDef*%
%ADD12Outline4P,-1.800000X-1.150000X1.800000X-0.550000X1.800000X0.550000X-1.800000X1.150000X90.000000*%
%TD*%
%TA.AperFunction,SMDPad,CuDef*%
%ADD13Outline4P,-1.800000X-1.150000X1.800000X-0.550000X1.800000X0.550000X-1.800000X1.150000X270.000000*%
%TD*%
%TA.AperFunction,SMDPad,CuDef*%
%ADD14RoundRect,0.200000X-0.275000X0.200000X-0.275000X-0.200000X0.275000X-0.200000X0.275000X0.200000X0*%
%TD*%
%TA.AperFunction,SMDPad,CuDef*%
%ADD15RoundRect,0.200000X-0.200000X-0.275000X0.200000X-0.275000X0.200000X0.275000X-0.200000X0.275000X0*%
%TD*%
%TA.AperFunction,SMDPad,CuDef*%
%ADD16RoundRect,0.150000X-0.725000X-0.150000X0.725000X-0.150000X0.725000X0.150000X-0.725000X0.150000X0*%
%TD*%
%TA.AperFunction,ComponentPad*%
%ADD17R,3.000000X3.000000*%
%TD*%
%TA.AperFunction,ComponentPad*%
%ADD18C,3.000000*%
%TD*%
%TA.AperFunction,SMDPad,CuDef*%
%ADD19RoundRect,0.225000X0.250000X-0.225000X0.250000X0.225000X-0.250000X0.225000X-0.250000X-0.225000X0*%
%TD*%
%TA.AperFunction,SMDPad,CuDef*%
%ADD20RoundRect,0.225000X-0.250000X0.225000X-0.250000X-0.225000X0.250000X-0.225000X0.250000X0.225000X0*%
%TD*%
%TA.AperFunction,Conductor*%
%ADD21C,0.500000*%
%TD*%
%TA.AperFunction,Conductor*%
%ADD22C,0.250000*%
%TD*%
%TA.AperFunction,Conductor*%
%ADD23C,1.000000*%
%TD*%
G04 APERTURE END LIST*
D10*
%TO.P,J103,1,Pin_1*%
%TO.N,VCC*%
X107000000Y-82805000D03*
D11*
%TO.P,J103,2,Pin_2*%
%TO.N,Net-(J102-Pin_2)*%
X107000000Y-85345000D03*
%TO.P,J103,3,Pin_3*%
%TO.N,Net-(J102-Pin_3)*%
X107000000Y-87885000D03*
%TO.P,J103,4,Pin_4*%
%TO.N,Net-(J102-Pin_4)*%
X107000000Y-90425000D03*
%TO.P,J103,5,Pin_5*%
%TO.N,Net-(J102-Pin_5)*%
X107000000Y-92965000D03*
%TO.P,J103,6,Pin_6*%
%TO.N,GND*%
X107000000Y-95505000D03*
%TD*%
D10*
%TO.P,J102,1,Pin_1*%
%TO.N,VCC*%
X103000000Y-82890000D03*
D11*
%TO.P,J102,2,Pin_2*%
%TO.N,Net-(J102-Pin_2)*%
X103000000Y-85430000D03*
%TO.P,J102,3,Pin_3*%
%TO.N,Net-(J102-Pin_3)*%
X103000000Y-87970000D03*
%TO.P,J102,4,Pin_4*%
%TO.N,Net-(J102-Pin_4)*%
X103000000Y-90510000D03*
%TO.P,J102,5,Pin_5*%
%TO.N,Net-(J102-Pin_5)*%
X103000000Y-93050000D03*
%TO.P,J102,6,Pin_6*%
%TO.N,GND*%
X103000000Y-95590000D03*
%TD*%
D12*
%TO.P,D101,1,A1*%
%TO.N,GND*%
X66400000Y-95800000D03*
D13*
%TO.P,D101,2,A2*%
%TO.N,Net-(D101-A2)*%
X66400000Y-90000000D03*
%TD*%
D14*
%TO.P,R104,1*%
%TO.N,VCC*%
X81800000Y-81800000D03*
%TO.P,R104,2*%
%TO.N,Net-(J102-Pin_2)*%
X81800000Y-83450000D03*
%TD*%
%TO.P,R103,2*%
%TO.N,Net-(J102-Pin_5)*%
X83600000Y-83450000D03*
%TO.P,R103,1*%
%TO.N,VCC*%
X83600000Y-81800000D03*
%TD*%
D15*
%TO.P,R102,1*%
%TO.N,Net-(D101-A2)*%
X73775000Y-91025000D03*
%TO.P,R102,2*%
%TO.N,Net-(U101-LIN)*%
X75425000Y-91025000D03*
%TD*%
D14*
%TO.P,R101,1*%
%TO.N,+BATT*%
X72000000Y-86600000D03*
%TO.P,R101,2*%
%TO.N,Net-(D101-A2)*%
X72000000Y-88250000D03*
%TD*%
D16*
%TO.P,U101,1,VBAT*%
%TO.N,+BATT*%
X80000000Y-87025000D03*
%TO.P,U101,2,EN*%
%TO.N,Net-(J102-Pin_2)*%
X80000000Y-88295000D03*
%TO.P,U101,3,GND*%
%TO.N,GND*%
X80000000Y-89565000D03*
%TO.P,U101,4,LIN*%
%TO.N,Net-(U101-LIN)*%
X80000000Y-90835000D03*
%TO.P,U101,5,RXD*%
%TO.N,Net-(J102-Pin_5)*%
X85150000Y-90835000D03*
%TO.P,U101,6,TXD*%
%TO.N,Net-(J102-Pin_4)*%
X85150000Y-89565000D03*
%TO.P,U101,7,RSTN*%
%TO.N,Net-(J102-Pin_3)*%
X85150000Y-88295000D03*
%TO.P,U101,8,VCC*%
%TO.N,VCC*%
X85150000Y-87025000D03*
%TD*%
D17*
%TO.P,J101,1,Pin_1*%
%TO.N,+BATT*%
X58200000Y-84465000D03*
D18*
%TO.P,J101,2,Pin_2*%
%TO.N,Net-(D101-A2)*%
X58200000Y-89545000D03*
%TO.P,J101,3,Pin_3*%
%TO.N,GND*%
X58200000Y-94625000D03*
%TD*%
D19*
%TO.P,C104,1*%
%TO.N,VCC*%
X88200000Y-86600000D03*
%TO.P,C104,2*%
%TO.N,GND*%
X88200000Y-85050000D03*
%TD*%
%TO.P,C103,1*%
%TO.N,+BATT*%
X77200000Y-86600000D03*
%TO.P,C103,2*%
%TO.N,GND*%
X77200000Y-85050000D03*
%TD*%
D20*
%TO.P,C102,1*%
%TO.N,Net-(U101-LIN)*%
X77000000Y-91050000D03*
%TO.P,C102,2*%
%TO.N,GND*%
X77000000Y-92600000D03*
%TD*%
%TO.P,C101,1*%
%TO.N,Net-(D101-A2)*%
X72000000Y-91050000D03*
%TO.P,C101,2*%
%TO.N,GND*%
X72000000Y-92600000D03*
%TD*%
D21*
%TO.N,Net-(D101-A2)*%
X72000000Y-88250000D02*
X72000000Y-91050000D01*
D22*
%TO.N,Net-(U101-LIN)*%
X77215000Y-90835000D02*
X77000000Y-91050000D01*
D21*
X80000000Y-90835000D02*
X77215000Y-90835000D01*
%TO.N,Net-(J102-Pin_5)*%
X102950000Y-93000000D02*
X103000000Y-93050000D01*
X96600000Y-93000000D02*
X102950000Y-93000000D01*
X94435000Y-90835000D02*
X96600000Y-93000000D01*
X85150000Y-90835000D02*
X94435000Y-90835000D01*
%TO.N,Net-(J102-Pin_4)*%
X99000000Y-90600000D02*
X99090000Y-90510000D01*
X97965000Y-89565000D02*
X99000000Y-90600000D01*
X85150000Y-89565000D02*
X97965000Y-89565000D01*
X99090000Y-90510000D02*
X103000000Y-90510000D01*
%TO.N,Net-(J102-Pin_2)*%
X109455000Y-85345000D02*
X107000000Y-85345000D01*
X109800000Y-85000000D02*
X109455000Y-85345000D01*
X109800000Y-79400000D02*
X109800000Y-85000000D01*
X108800000Y-78400000D02*
X109800000Y-79400000D01*
X79800000Y-78400000D02*
X108800000Y-78400000D01*
X79400000Y-78800000D02*
X79800000Y-78400000D01*
X79400000Y-82600000D02*
X79400000Y-78800000D01*
X80250000Y-83450000D02*
X79400000Y-82600000D01*
X81800000Y-83450000D02*
X80250000Y-83450000D01*
%TO.N,Net-(J102-Pin_3)*%
X102970000Y-88000000D02*
X103000000Y-87970000D01*
X99400000Y-88000000D02*
X102970000Y-88000000D01*
X99105000Y-88295000D02*
X99400000Y-88000000D01*
X85150000Y-88295000D02*
X99105000Y-88295000D01*
%TO.N,VCC*%
X94000000Y-86600000D02*
X88200000Y-86600000D01*
X97710000Y-82890000D02*
X94000000Y-86600000D01*
X103000000Y-82890000D02*
X97710000Y-82890000D01*
D23*
%TO.N,Net-(J102-Pin_5)*%
X103085000Y-92965000D02*
X103000000Y-93050000D01*
X107000000Y-92965000D02*
X103085000Y-92965000D01*
%TO.N,Net-(J102-Pin_4)*%
X103085000Y-90425000D02*
X103000000Y-90510000D01*
X107000000Y-90425000D02*
X103085000Y-90425000D01*
%TO.N,Net-(J102-Pin_3)*%
X103085000Y-87885000D02*
X103000000Y-87970000D01*
X107000000Y-87885000D02*
X103085000Y-87885000D01*
%TO.N,Net-(J102-Pin_2)*%
X103085000Y-85345000D02*
X103000000Y-85430000D01*
X107000000Y-85345000D02*
X103085000Y-85345000D01*
%TO.N,VCC*%
X103085000Y-82805000D02*
X103000000Y-82890000D01*
X107000000Y-82805000D02*
X103085000Y-82805000D01*
D21*
X88200000Y-86600000D02*
X86800000Y-86600000D01*
X83600000Y-81800000D02*
X83600000Y-80200000D01*
X82000000Y-80200000D02*
X83600000Y-80200000D01*
X83600000Y-80200000D02*
X85200000Y-80200000D01*
X86375000Y-87025000D02*
X85150000Y-87025000D01*
X86800000Y-86600000D02*
X86375000Y-87025000D01*
X86800000Y-81800000D02*
X86800000Y-86600000D01*
X85200000Y-80200000D02*
X86800000Y-81800000D01*
X81800000Y-80400000D02*
X82000000Y-80200000D01*
X81800000Y-81800000D02*
X81800000Y-80400000D01*
%TO.N,Net-(J102-Pin_5)*%
X84035000Y-90835000D02*
X85150000Y-90835000D01*
X83600000Y-90400000D02*
X84035000Y-90835000D01*
X83600000Y-83450000D02*
X83600000Y-90400000D01*
%TO.N,Net-(J102-Pin_2)*%
X81305000Y-88295000D02*
X80000000Y-88295000D01*
X81800000Y-83450000D02*
X81800000Y-87800000D01*
X81800000Y-87800000D02*
X81305000Y-88295000D01*
%TO.N,+BATT*%
X71800000Y-86400000D02*
X72000000Y-86600000D01*
X66200000Y-86400000D02*
X71800000Y-86400000D01*
X64265000Y-84465000D02*
X66200000Y-86400000D01*
D23*
X58200000Y-84465000D02*
X64265000Y-84465000D01*
D21*
X72000000Y-86600000D02*
X77200000Y-86600000D01*
X77625000Y-87025000D02*
X77200000Y-86600000D01*
X80000000Y-87025000D02*
X77625000Y-87025000D01*
D22*
%TO.N,Net-(D101-A2)*%
X58345000Y-89400000D02*
X58200000Y-89545000D01*
D23*
X68400000Y-89400000D02*
X58345000Y-89400000D01*
D21*
X70050000Y-91050000D02*
X68400000Y-89400000D01*
X72000000Y-91050000D02*
X70050000Y-91050000D01*
X73750000Y-91050000D02*
X72000000Y-91050000D01*
D22*
X73775000Y-91025000D02*
X73750000Y-91050000D01*
D21*
%TO.N,Net-(U101-LIN)*%
X76975000Y-91025000D02*
X75425000Y-91025000D01*
D22*
X77000000Y-91050000D02*
X76975000Y-91025000D01*
%TD*%
%TA.AperFunction,Conductor*%
%TO.N,GND*%
G36*
X108504809Y-79170185D02*
G01*
X108525451Y-79186819D01*
X109013181Y-79674548D01*
X109046666Y-79735871D01*
X109049500Y-79762229D01*
X109049500Y-84470500D01*
X109029815Y-84537539D01*
X108977011Y-84583294D01*
X108925500Y-84594500D01*
X108187701Y-84594500D01*
X108120662Y-84574815D01*
X108086126Y-84541623D01*
X108038497Y-84473601D01*
X108000535Y-84435639D01*
X107916567Y-84351671D01*
X107883084Y-84290351D01*
X107888068Y-84220659D01*
X107929939Y-84164725D01*
X107960915Y-84147810D01*
X108092331Y-84098796D01*
X108207546Y-84012546D01*
X108293796Y-83897331D01*
X108344091Y-83762483D01*
X108350500Y-83702873D01*
X108350499Y-81907128D01*
X108344091Y-81847517D01*
X108293796Y-81712669D01*
X108207546Y-81597454D01*
X108092331Y-81511204D01*
X107957483Y-81460909D01*
X107897873Y-81454500D01*
X107894550Y-81454500D01*
X106105439Y-81454500D01*
X106105420Y-81454500D01*
X106102128Y-81454501D01*
X106098848Y-81454853D01*
X106098840Y-81454854D01*
X106042515Y-81460909D01*
X105907669Y-81511204D01*
X105792454Y-81597454D01*
X105706203Y-81712671D01*
X105702039Y-81723835D01*
X105660167Y-81779768D01*
X105594702Y-81804184D01*
X105585858Y-81804500D01*
X104360979Y-81804500D01*
X104293940Y-81784815D01*
X104261712Y-81754811D01*
X104207546Y-81682454D01*
X104092331Y-81596204D01*
X103957483Y-81545909D01*
X103897873Y-81539500D01*
X103894550Y-81539500D01*
X102105439Y-81539500D01*
X102105420Y-81539500D01*
X102102128Y-81539501D01*
X102098848Y-81539853D01*
X102098840Y-81539854D01*
X102042515Y-81545909D01*
X101907669Y-81596204D01*
X101792454Y-81682454D01*
X101706204Y-81797668D01*
X101664144Y-81910439D01*
X101655909Y-81932517D01*
X101649500Y-81992127D01*
X101649500Y-81995449D01*
X101649500Y-82015500D01*
X101629815Y-82082539D01*
X101577011Y-82128294D01*
X101525500Y-82139500D01*
X97773706Y-82139500D01*
X97755736Y-82138191D01*
X97739896Y-82135871D01*
X97731977Y-82134711D01*
X97731976Y-82134711D01*
X97682634Y-82139028D01*
X97671827Y-82139500D01*
X97666291Y-82139500D01*
X97662730Y-82139916D01*
X97662715Y-82139917D01*
X97635484Y-82143100D01*
X97631900Y-82143466D01*
X97555950Y-82150111D01*
X97536922Y-82154329D01*
X97465270Y-82180407D01*
X97461869Y-82181589D01*
X97389480Y-82205578D01*
X97371927Y-82214076D01*
X97308236Y-82255965D01*
X97305196Y-82257902D01*
X97240280Y-82297943D01*
X97225165Y-82310255D01*
X97172848Y-82365708D01*
X97170336Y-82368294D01*
X93725451Y-85813181D01*
X93664128Y-85846666D01*
X93637770Y-85849500D01*
X89169641Y-85849500D01*
X89102602Y-85829815D01*
X89056847Y-85777011D01*
X89046903Y-85707853D01*
X89064103Y-85660403D01*
X89111546Y-85583486D01*
X89164856Y-85422606D01*
X89174680Y-85326445D01*
X89175000Y-85320167D01*
X89175000Y-85300000D01*
X88074000Y-85300000D01*
X88006961Y-85280315D01*
X87961206Y-85227511D01*
X87950000Y-85176000D01*
X87950000Y-84100000D01*
X88450000Y-84100000D01*
X88450000Y-84800000D01*
X89174999Y-84800000D01*
X89174999Y-84779834D01*
X89174678Y-84773552D01*
X89164856Y-84677394D01*
X89111546Y-84516513D01*
X89022573Y-84372267D01*
X88902732Y-84252426D01*
X88758486Y-84163453D01*
X88597606Y-84110143D01*
X88501445Y-84100319D01*
X88495168Y-84100000D01*
X88450000Y-84100000D01*
X87950000Y-84100000D01*
X87904835Y-84100000D01*
X87898551Y-84100321D01*
X87802394Y-84110143D01*
X87713504Y-84139599D01*
X87643675Y-84142001D01*
X87583634Y-84106269D01*
X87552441Y-84043748D01*
X87550500Y-84021893D01*
X87550500Y-81863705D01*
X87551809Y-81845735D01*
X87551961Y-81844691D01*
X87555289Y-81821977D01*
X87550972Y-81772629D01*
X87550500Y-81761823D01*
X87550500Y-81759901D01*
X87550500Y-81756291D01*
X87546903Y-81725520D01*
X87546536Y-81721929D01*
X87539889Y-81645949D01*
X87535672Y-81626930D01*
X87509592Y-81555274D01*
X87508408Y-81551868D01*
X87494933Y-81511204D01*
X87484814Y-81480666D01*
X87484812Y-81480663D01*
X87484415Y-81479464D01*
X87475929Y-81461936D01*
X87475237Y-81460884D01*
X87475237Y-81460883D01*
X87434001Y-81398188D01*
X87432086Y-81395181D01*
X87392048Y-81330269D01*
X87379748Y-81315170D01*
X87324273Y-81262832D01*
X87321686Y-81260319D01*
X85775728Y-79714360D01*
X85763946Y-79700727D01*
X85749609Y-79681469D01*
X85711666Y-79649631D01*
X85703691Y-79642323D01*
X85702329Y-79640961D01*
X85699777Y-79638409D01*
X85675444Y-79619169D01*
X85672647Y-79616890D01*
X85614251Y-79567890D01*
X85597821Y-79557422D01*
X85528691Y-79525186D01*
X85525447Y-79523615D01*
X85457306Y-79489394D01*
X85438903Y-79482997D01*
X85364211Y-79467574D01*
X85360692Y-79466794D01*
X85286490Y-79449208D01*
X85267121Y-79447229D01*
X85190869Y-79449448D01*
X85187263Y-79449500D01*
X83625446Y-79449500D01*
X83618236Y-79449290D01*
X83556065Y-79445668D01*
X83545023Y-79447616D01*
X83523490Y-79449500D01*
X82063706Y-79449500D01*
X82045736Y-79448191D01*
X82031853Y-79446157D01*
X82021977Y-79444711D01*
X82021976Y-79444711D01*
X81972631Y-79449028D01*
X81961824Y-79449500D01*
X81956291Y-79449500D01*
X81952730Y-79449916D01*
X81952715Y-79449917D01*
X81925501Y-79453098D01*
X81921916Y-79453464D01*
X81845961Y-79460109D01*
X81826921Y-79464330D01*
X81755232Y-79490421D01*
X81751831Y-79491603D01*
X81679474Y-79515580D01*
X81661927Y-79524075D01*
X81598221Y-79565975D01*
X81595181Y-79567912D01*
X81530280Y-79607944D01*
X81515164Y-79620257D01*
X81462817Y-79675740D01*
X81460306Y-79678325D01*
X81314362Y-79824269D01*
X81300730Y-79836050D01*
X81281472Y-79850387D01*
X81249634Y-79888330D01*
X81242337Y-79896293D01*
X81240972Y-79897657D01*
X81240950Y-79897681D01*
X81238409Y-79900223D01*
X81236173Y-79903050D01*
X81236171Y-79903053D01*
X81219176Y-79924546D01*
X81216902Y-79927337D01*
X81167894Y-79985744D01*
X81157418Y-80002187D01*
X81125192Y-80071294D01*
X81123622Y-80074536D01*
X81089393Y-80142692D01*
X81082996Y-80161098D01*
X81067573Y-80235788D01*
X81066793Y-80239305D01*
X81049208Y-80313506D01*
X81047229Y-80332879D01*
X81049448Y-80409129D01*
X81049500Y-80412735D01*
X81049500Y-81033480D01*
X81029815Y-81100519D01*
X81013181Y-81121161D01*
X80969528Y-81164813D01*
X80881523Y-81310392D01*
X80830913Y-81472806D01*
X80827424Y-81511204D01*
X80824500Y-81543384D01*
X80824500Y-82056616D01*
X80824754Y-82059420D01*
X80824755Y-82059424D01*
X80830913Y-82127193D01*
X80830914Y-82127196D01*
X80881522Y-82289606D01*
X80881523Y-82289607D01*
X80969528Y-82435186D01*
X81022161Y-82487819D01*
X81055646Y-82549142D01*
X81050662Y-82618834D01*
X81008790Y-82674767D01*
X80943326Y-82699184D01*
X80934480Y-82699500D01*
X80612229Y-82699500D01*
X80545190Y-82679815D01*
X80524548Y-82663181D01*
X80186819Y-82325451D01*
X80153334Y-82264128D01*
X80150500Y-82237770D01*
X80150500Y-79274500D01*
X80170185Y-79207461D01*
X80222989Y-79161706D01*
X80274500Y-79150500D01*
X108437770Y-79150500D01*
X108504809Y-79170185D01*
G37*
%TD.AperFunction*%
%TA.AperFunction,Conductor*%
G36*
X113342043Y-75419685D02*
G01*
X113387798Y-75472489D01*
X113399000Y-75524992D01*
X113200984Y-100276992D01*
X113180764Y-100343872D01*
X113127595Y-100389203D01*
X113076988Y-100400000D01*
X55924000Y-100400000D01*
X55856961Y-100380315D01*
X55811206Y-100327511D01*
X55800000Y-100276000D01*
X55800000Y-97594359D01*
X64744889Y-97594359D01*
X64763759Y-97736889D01*
X64822020Y-97868334D01*
X64914956Y-97978040D01*
X65035036Y-98057121D01*
X65172529Y-98099166D01*
X65180957Y-98099816D01*
X65185717Y-98099999D01*
X66149999Y-98099999D01*
X66150000Y-98099998D01*
X66150000Y-96050000D01*
X66650000Y-96050000D01*
X66650000Y-98099999D01*
X67614259Y-98099999D01*
X67619044Y-98099815D01*
X67627473Y-98099165D01*
X67764961Y-98057121D01*
X67885041Y-97978040D01*
X67977976Y-97868335D01*
X68036240Y-97736889D01*
X68055110Y-97594357D01*
X68054365Y-97585934D01*
X68053761Y-97581185D01*
X67798564Y-96050000D01*
X66650000Y-96050000D01*
X66150000Y-96050000D01*
X65001436Y-96050000D01*
X64746238Y-97581187D01*
X64745633Y-97585941D01*
X64744889Y-97594359D01*
X55800000Y-97594359D01*
X55800000Y-94625000D01*
X56194890Y-94625000D01*
X56215300Y-94910357D01*
X56276111Y-95189902D01*
X56376088Y-95457952D01*
X56513193Y-95709042D01*
X56619883Y-95851562D01*
X57515195Y-94956250D01*
X57537340Y-95007587D01*
X57643433Y-95150094D01*
X57779530Y-95264294D01*
X57869216Y-95309335D01*
X56973436Y-96205115D01*
X57115958Y-96311806D01*
X57367047Y-96448911D01*
X57635097Y-96548888D01*
X57914642Y-96609699D01*
X58199999Y-96630109D01*
X58485357Y-96609699D01*
X58764902Y-96548888D01*
X59032952Y-96448911D01*
X59284041Y-96311806D01*
X59426562Y-96205115D01*
X58533748Y-95312300D01*
X58543409Y-95308784D01*
X58691844Y-95211157D01*
X58813764Y-95081930D01*
X58885768Y-94957215D01*
X59780115Y-95851562D01*
X59886806Y-95709041D01*
X59973650Y-95549999D01*
X65084768Y-95549999D01*
X65084769Y-95550000D01*
X66150000Y-95550000D01*
X66150000Y-93499999D01*
X66649999Y-93499999D01*
X66649999Y-95549999D01*
X66650001Y-95550000D01*
X67715230Y-95550000D01*
X67715230Y-95549999D01*
X67437775Y-93885268D01*
X67435807Y-93877003D01*
X67407119Y-93785035D01*
X67328040Y-93664956D01*
X67218334Y-93572020D01*
X67086889Y-93513759D01*
X66991468Y-93500583D01*
X66982978Y-93499999D01*
X66649999Y-93499999D01*
X66150000Y-93499999D01*
X65817018Y-93499999D01*
X65808542Y-93500581D01*
X65713111Y-93513759D01*
X65581663Y-93572024D01*
X65471959Y-93664957D01*
X65392880Y-93785036D01*
X65364190Y-93877010D01*
X65362224Y-93885269D01*
X65084768Y-95549999D01*
X59973650Y-95549999D01*
X60023911Y-95457952D01*
X60123888Y-95189902D01*
X60184699Y-94910357D01*
X60205109Y-94624999D01*
X60184699Y-94339642D01*
X60123888Y-94060097D01*
X60023911Y-93792047D01*
X59886806Y-93540958D01*
X59780115Y-93398436D01*
X58884803Y-94293747D01*
X58862660Y-94242413D01*
X58756567Y-94099906D01*
X58620470Y-93985706D01*
X58530781Y-93940663D01*
X59426562Y-93044883D01*
X59284042Y-92938193D01*
X59122528Y-92850000D01*
X71025001Y-92850000D01*
X71025001Y-92870165D01*
X71025321Y-92876447D01*
X71035143Y-92972605D01*
X71088453Y-93133486D01*
X71177426Y-93277732D01*
X71297267Y-93397573D01*
X71441513Y-93486546D01*
X71602393Y-93539856D01*
X71698535Y-93549678D01*
X71704852Y-93549999D01*
X71749999Y-93549999D01*
X71750000Y-93549998D01*
X71750000Y-92850000D01*
X72250000Y-92850000D01*
X72250000Y-93549999D01*
X72295165Y-93549999D01*
X72301447Y-93549678D01*
X72397605Y-93539856D01*
X72558486Y-93486546D01*
X72702732Y-93397573D01*
X72822573Y-93277732D01*
X72911546Y-93133486D01*
X72964856Y-92972606D01*
X72974680Y-92876445D01*
X72975000Y-92870167D01*
X72975000Y-92850000D01*
X76025001Y-92850000D01*
X76025001Y-92870165D01*
X76025321Y-92876447D01*
X76035143Y-92972605D01*
X76088453Y-93133486D01*
X76177426Y-93277732D01*
X76297267Y-93397573D01*
X76441513Y-93486546D01*
X76602393Y-93539856D01*
X76698535Y-93549678D01*
X76704852Y-93549999D01*
X76749999Y-93549999D01*
X76750000Y-93549998D01*
X76750000Y-92850000D01*
X77250000Y-92850000D01*
X77250000Y-93549999D01*
X77295165Y-93549999D01*
X77301447Y-93549678D01*
X77397605Y-93539856D01*
X77558486Y-93486546D01*
X77702732Y-93397573D01*
X77822573Y-93277732D01*
X77911546Y-93133486D01*
X77964856Y-92972606D01*
X77974680Y-92876445D01*
X77975000Y-92870167D01*
X77975000Y-92850000D01*
X77250000Y-92850000D01*
X76750000Y-92850000D01*
X76025001Y-92850000D01*
X72975000Y-92850000D01*
X72250000Y-92850000D01*
X71750000Y-92850000D01*
X71025001Y-92850000D01*
X59122528Y-92850000D01*
X59032952Y-92801088D01*
X58764902Y-92701111D01*
X58485357Y-92640300D01*
X58200000Y-92619890D01*
X57914642Y-92640300D01*
X57635097Y-92701111D01*
X57367047Y-92801088D01*
X57115954Y-92938195D01*
X56973437Y-93044882D01*
X56973436Y-93044883D01*
X57866251Y-93937699D01*
X57856591Y-93941216D01*
X57708156Y-94038843D01*
X57586236Y-94168070D01*
X57514231Y-94292784D01*
X56619883Y-93398436D01*
X56619882Y-93398437D01*
X56513195Y-93540954D01*
X56376088Y-93792047D01*
X56276111Y-94060097D01*
X56215300Y-94339642D01*
X56194890Y-94625000D01*
X55800000Y-94625000D01*
X55800000Y-89545000D01*
X56194389Y-89545000D01*
X56214804Y-89830429D01*
X56275629Y-90110041D01*
X56275631Y-90110046D01*
X56360017Y-90336294D01*
X56375634Y-90378163D01*
X56512772Y-90629313D01*
X56536049Y-90660407D01*
X56684261Y-90858395D01*
X56886605Y-91060739D01*
X57025159Y-91164459D01*
X57115686Y-91232227D01*
X57201273Y-91278961D01*
X57366839Y-91369367D01*
X57634954Y-91469369D01*
X57634957Y-91469369D01*
X57634958Y-91469370D01*
X57672690Y-91477578D01*
X57914572Y-91530196D01*
X58200000Y-91550610D01*
X58485428Y-91530196D01*
X58765046Y-91469369D01*
X59033161Y-91369367D01*
X59284315Y-91232226D01*
X59513395Y-91060739D01*
X59715739Y-90858395D01*
X59887226Y-90629315D01*
X59976909Y-90465072D01*
X60026314Y-90415668D01*
X60085741Y-90400500D01*
X65004302Y-90400500D01*
X65071341Y-90420185D01*
X65117096Y-90472989D01*
X65126615Y-90504115D01*
X65353404Y-91864855D01*
X65362437Y-91919050D01*
X65364763Y-91926508D01*
X65392423Y-92015180D01*
X65471581Y-92135379D01*
X65543878Y-92196623D01*
X65581397Y-92228406D01*
X65712973Y-92286726D01*
X65812725Y-92300500D01*
X66987276Y-92300501D01*
X67087027Y-92286726D01*
X67218603Y-92228406D01*
X67328418Y-92135378D01*
X67407577Y-92015180D01*
X67437562Y-91919051D01*
X67673384Y-90504114D01*
X67703823Y-90441223D01*
X67763431Y-90404772D01*
X67795698Y-90400500D01*
X68287770Y-90400500D01*
X68354809Y-90420185D01*
X68375451Y-90436819D01*
X69474267Y-91535634D01*
X69486048Y-91549266D01*
X69500389Y-91568529D01*
X69500390Y-91568530D01*
X69523319Y-91587770D01*
X69538339Y-91600373D01*
X69546314Y-91607681D01*
X69550223Y-91611590D01*
X69553055Y-91613829D01*
X69553065Y-91613838D01*
X69574542Y-91630819D01*
X69577298Y-91633063D01*
X69634786Y-91681302D01*
X69634788Y-91681303D01*
X69635757Y-91682116D01*
X69652177Y-91692576D01*
X69653321Y-91693109D01*
X69653323Y-91693111D01*
X69721357Y-91724835D01*
X69724456Y-91726335D01*
X69791567Y-91760040D01*
X69792704Y-91760611D01*
X69811084Y-91766998D01*
X69812321Y-91767253D01*
X69812327Y-91767256D01*
X69885862Y-91782439D01*
X69889209Y-91783181D01*
X69962279Y-91800500D01*
X69962281Y-91800500D01*
X69963505Y-91800790D01*
X69982876Y-91802769D01*
X69984140Y-91802732D01*
X69984144Y-91802733D01*
X70059110Y-91800552D01*
X70062716Y-91800500D01*
X71030359Y-91800500D01*
X71097398Y-91820185D01*
X71143153Y-91872989D01*
X71153097Y-91942147D01*
X71135897Y-91989597D01*
X71088453Y-92066513D01*
X71035143Y-92227393D01*
X71025319Y-92323554D01*
X71025000Y-92329832D01*
X71025000Y-92350000D01*
X72974999Y-92350000D01*
X72974999Y-92329834D01*
X72974678Y-92323552D01*
X72964856Y-92227394D01*
X72911546Y-92066513D01*
X72864103Y-91989597D01*
X72845662Y-91922205D01*
X72866584Y-91855541D01*
X72920226Y-91810772D01*
X72969641Y-91800500D01*
X73033480Y-91800500D01*
X73100519Y-91820185D01*
X73121161Y-91836819D01*
X73139813Y-91855471D01*
X73139815Y-91855472D01*
X73285394Y-91943478D01*
X73447804Y-91994086D01*
X73518384Y-92000500D01*
X73521203Y-92000500D01*
X74028797Y-92000500D01*
X74031616Y-92000500D01*
X74102196Y-91994086D01*
X74264606Y-91943478D01*
X74410185Y-91855472D01*
X74454885Y-91810772D01*
X74512319Y-91753339D01*
X74573642Y-91719854D01*
X74643334Y-91724838D01*
X74687681Y-91753339D01*
X74789813Y-91855471D01*
X74789815Y-91855472D01*
X74935394Y-91943478D01*
X75097804Y-91994086D01*
X75168384Y-92000500D01*
X75171203Y-92000500D01*
X75678797Y-92000500D01*
X75681616Y-92000500D01*
X75752196Y-91994086D01*
X75914606Y-91943478D01*
X75914609Y-91943475D01*
X75923380Y-91940743D01*
X75993240Y-91939593D01*
X76052633Y-91976394D01*
X76082701Y-92039463D01*
X76077976Y-92098133D01*
X76035143Y-92227393D01*
X76025319Y-92323554D01*
X76025000Y-92329832D01*
X76025000Y-92350000D01*
X77974999Y-92350000D01*
X77974999Y-92329834D01*
X77974678Y-92323552D01*
X77964856Y-92227394D01*
X77911546Y-92066513D01*
X77822574Y-91922269D01*
X77813341Y-91913036D01*
X77779854Y-91851714D01*
X77784837Y-91782022D01*
X77813339Y-91737672D01*
X77822968Y-91728044D01*
X77874558Y-91644403D01*
X77926507Y-91597678D01*
X77980097Y-91585500D01*
X78992673Y-91585500D01*
X79027268Y-91590424D01*
X79172427Y-91632597D01*
X79172431Y-91632598D01*
X79209306Y-91635500D01*
X79211751Y-91635500D01*
X80788249Y-91635500D01*
X80790694Y-91635500D01*
X80827569Y-91632598D01*
X80985398Y-91586744D01*
X81126865Y-91503081D01*
X81243081Y-91386865D01*
X81326744Y-91245398D01*
X81372598Y-91087569D01*
X81375500Y-91050694D01*
X81375500Y-90619306D01*
X81372598Y-90582431D01*
X81363988Y-90552797D01*
X81326744Y-90424602D01*
X81278468Y-90342972D01*
X81243081Y-90283135D01*
X81243080Y-90283134D01*
X81235107Y-90269652D01*
X81237007Y-90268527D01*
X81213788Y-90226004D01*
X81218772Y-90156312D01*
X81235397Y-90130447D01*
X81234709Y-90130040D01*
X81326280Y-89975200D01*
X81372099Y-89817488D01*
X81372295Y-89815000D01*
X78627704Y-89815000D01*
X78627900Y-89817492D01*
X78659397Y-89925905D01*
X78659198Y-89995775D01*
X78621256Y-90054445D01*
X78557617Y-90083288D01*
X78540321Y-90084500D01*
X77171291Y-90084500D01*
X77167726Y-90084916D01*
X77167720Y-90084917D01*
X77050126Y-90098662D01*
X77035731Y-90099500D01*
X76704805Y-90099500D01*
X76704785Y-90099500D01*
X76701656Y-90099501D01*
X76698524Y-90099820D01*
X76698522Y-90099821D01*
X76602292Y-90109650D01*
X76441300Y-90162997D01*
X76290460Y-90256038D01*
X76225363Y-90274500D01*
X76191519Y-90274500D01*
X76124480Y-90254815D01*
X76103837Y-90238180D01*
X76060186Y-90194528D01*
X75972179Y-90141326D01*
X75914606Y-90106522D01*
X75752196Y-90055914D01*
X75752193Y-90055913D01*
X75684424Y-90049755D01*
X75684420Y-90049754D01*
X75681616Y-90049500D01*
X75168384Y-90049500D01*
X75165580Y-90049754D01*
X75165575Y-90049755D01*
X75097806Y-90055913D01*
X75016599Y-90081217D01*
X74935394Y-90106522D01*
X74935392Y-90106522D01*
X74935392Y-90106523D01*
X74789813Y-90194528D01*
X74687681Y-90296661D01*
X74626358Y-90330146D01*
X74556666Y-90325162D01*
X74512319Y-90296661D01*
X74410186Y-90194528D01*
X74322179Y-90141326D01*
X74264606Y-90106522D01*
X74102196Y-90055914D01*
X74102193Y-90055913D01*
X74034424Y-90049755D01*
X74034420Y-90049754D01*
X74031616Y-90049500D01*
X73518384Y-90049500D01*
X73515580Y-90049754D01*
X73515575Y-90049755D01*
X73447806Y-90055913D01*
X73366599Y-90081217D01*
X73285394Y-90106522D01*
X73285392Y-90106522D01*
X73285392Y-90106523D01*
X73139815Y-90194527D01*
X73108339Y-90226004D01*
X73071160Y-90263182D01*
X73009840Y-90296666D01*
X72983481Y-90299500D01*
X72874500Y-90299500D01*
X72807461Y-90279815D01*
X72761706Y-90227011D01*
X72750500Y-90175500D01*
X72750500Y-89016519D01*
X72770185Y-88949480D01*
X72786820Y-88928837D01*
X72830471Y-88885186D01*
X72844807Y-88861472D01*
X72918478Y-88739606D01*
X72969086Y-88577196D01*
X72975500Y-88506616D01*
X72975500Y-87993384D01*
X72969086Y-87922804D01*
X72918478Y-87760394D01*
X72830472Y-87614815D01*
X72830471Y-87614813D01*
X72777839Y-87562181D01*
X72744354Y-87500858D01*
X72749338Y-87431166D01*
X72791210Y-87375233D01*
X72856674Y-87350816D01*
X72865520Y-87350500D01*
X76398125Y-87350500D01*
X76465164Y-87370185D01*
X76485806Y-87386819D01*
X76496955Y-87397968D01*
X76641300Y-87487002D01*
X76641302Y-87487002D01*
X76641303Y-87487003D01*
X76802292Y-87540349D01*
X76901655Y-87550500D01*
X77037796Y-87550499D01*
X77104836Y-87570183D01*
X77120231Y-87581867D01*
X77122665Y-87584033D01*
X77125223Y-87586591D01*
X77149556Y-87605830D01*
X77152335Y-87608095D01*
X77210752Y-87657113D01*
X77227179Y-87667578D01*
X77296320Y-87699819D01*
X77299567Y-87701391D01*
X77367699Y-87735609D01*
X77386087Y-87742000D01*
X77387323Y-87742255D01*
X77387327Y-87742257D01*
X77460895Y-87757447D01*
X77464242Y-87758189D01*
X77537279Y-87775500D01*
X77537281Y-87775500D01*
X77538509Y-87775791D01*
X77557878Y-87777770D01*
X77559140Y-87777733D01*
X77559144Y-87777734D01*
X77631533Y-87775627D01*
X77634131Y-87775552D01*
X77637737Y-87775500D01*
X78539800Y-87775500D01*
X78606839Y-87795185D01*
X78652594Y-87847989D01*
X78662538Y-87917147D01*
X78658876Y-87934095D01*
X78627402Y-88042427D01*
X78624691Y-88076871D01*
X78624690Y-88076886D01*
X78624500Y-88079306D01*
X78624500Y-88510694D01*
X78624690Y-88513114D01*
X78624691Y-88513128D01*
X78627402Y-88547572D01*
X78673255Y-88705397D01*
X78764893Y-88860348D01*
X78762991Y-88861472D01*
X78786211Y-88903995D01*
X78781227Y-88973687D01*
X78764603Y-88999554D01*
X78765291Y-88999961D01*
X78673719Y-89154799D01*
X78627900Y-89312511D01*
X78627704Y-89314999D01*
X78627705Y-89315000D01*
X81372295Y-89315000D01*
X81372295Y-89314999D01*
X81372099Y-89312507D01*
X81337715Y-89194155D01*
X81337914Y-89124285D01*
X81375856Y-89065616D01*
X81439495Y-89036772D01*
X81445988Y-89036032D01*
X81457797Y-89034999D01*
X81457797Y-89034998D01*
X81459052Y-89034889D01*
X81478062Y-89030674D01*
X81479250Y-89030241D01*
X81479255Y-89030241D01*
X81549820Y-89004557D01*
X81553095Y-89003419D01*
X81624334Y-88979814D01*
X81624336Y-88979812D01*
X81625536Y-88979415D01*
X81643063Y-88970929D01*
X81644112Y-88970238D01*
X81644117Y-88970237D01*
X81706806Y-88929005D01*
X81709798Y-88927099D01*
X81773656Y-88887712D01*
X81773656Y-88887711D01*
X81774729Y-88887050D01*
X81789824Y-88874753D01*
X81790692Y-88873832D01*
X81790696Y-88873830D01*
X81842184Y-88819254D01*
X81844630Y-88816736D01*
X82285642Y-88375724D01*
X82299260Y-88363954D01*
X82318530Y-88349610D01*
X82350366Y-88311667D01*
X82357680Y-88303688D01*
X82358264Y-88303103D01*
X82361591Y-88299777D01*
X82380833Y-88275439D01*
X82383090Y-88272670D01*
X82397853Y-88255075D01*
X82431302Y-88215214D01*
X82431303Y-88215211D01*
X82432115Y-88214244D01*
X82442573Y-88197827D01*
X82443106Y-88196682D01*
X82443111Y-88196677D01*
X82474833Y-88128646D01*
X82476362Y-88125488D01*
X82510040Y-88058433D01*
X82510040Y-88058432D01*
X82510612Y-88057294D01*
X82517000Y-88038915D01*
X82517255Y-88037675D01*
X82517257Y-88037673D01*
X82532435Y-87964157D01*
X82533200Y-87960708D01*
X82550500Y-87887721D01*
X82550500Y-87887718D01*
X82550791Y-87886491D01*
X82552770Y-87867120D01*
X82552733Y-87865858D01*
X82552734Y-87865855D01*
X82550552Y-87790868D01*
X82550500Y-87787262D01*
X82550500Y-84216519D01*
X82570185Y-84149480D01*
X82586812Y-84128844D01*
X82612320Y-84103336D01*
X82673639Y-84069853D01*
X82743330Y-84074836D01*
X82787679Y-84103336D01*
X82813181Y-84128838D01*
X82846666Y-84190159D01*
X82849500Y-84216519D01*
X82849500Y-90336294D01*
X82848191Y-90354264D01*
X82844711Y-90378023D01*
X82849028Y-90427368D01*
X82849500Y-90438175D01*
X82849500Y-90443709D01*
X82849916Y-90447272D01*
X82849917Y-90447282D01*
X82853098Y-90474496D01*
X82853464Y-90478082D01*
X82860109Y-90554041D01*
X82864329Y-90573071D01*
X82864758Y-90574251D01*
X82864759Y-90574255D01*
X82890413Y-90644742D01*
X82891582Y-90648107D01*
X82915580Y-90720524D01*
X82924075Y-90738072D01*
X82965979Y-90801784D01*
X82967889Y-90804782D01*
X83007288Y-90868656D01*
X83007952Y-90869732D01*
X83020253Y-90884830D01*
X83021168Y-90885693D01*
X83021170Y-90885696D01*
X83075708Y-90937150D01*
X83078295Y-90939663D01*
X83459269Y-91320637D01*
X83471051Y-91334270D01*
X83485390Y-91353531D01*
X83523338Y-91385373D01*
X83531313Y-91392681D01*
X83535223Y-91396591D01*
X83559556Y-91415830D01*
X83562335Y-91418095D01*
X83620752Y-91467113D01*
X83637179Y-91477578D01*
X83706320Y-91509819D01*
X83709567Y-91511391D01*
X83777699Y-91545609D01*
X83796087Y-91552000D01*
X83797323Y-91552255D01*
X83797327Y-91552257D01*
X83870895Y-91567447D01*
X83874242Y-91568189D01*
X83947279Y-91585500D01*
X83947281Y-91585500D01*
X83948509Y-91585791D01*
X83967878Y-91587770D01*
X83969140Y-91587733D01*
X83969144Y-91587734D01*
X84041533Y-91585627D01*
X84044131Y-91585552D01*
X84047737Y-91585500D01*
X84142673Y-91585500D01*
X84177268Y-91590424D01*
X84322427Y-91632597D01*
X84322431Y-91632598D01*
X84359306Y-91635500D01*
X84361751Y-91635500D01*
X85938249Y-91635500D01*
X85940694Y-91635500D01*
X85977569Y-91632598D01*
X86071924Y-91605185D01*
X86122732Y-91590424D01*
X86157327Y-91585500D01*
X94072770Y-91585500D01*
X94139809Y-91605185D01*
X94160451Y-91621819D01*
X96024267Y-93485634D01*
X96036048Y-93499266D01*
X96050389Y-93518529D01*
X96088339Y-93550373D01*
X96096314Y-93557681D01*
X96100223Y-93561590D01*
X96103055Y-93563829D01*
X96103065Y-93563838D01*
X96124542Y-93580819D01*
X96127298Y-93583063D01*
X96184786Y-93631302D01*
X96184788Y-93631303D01*
X96185757Y-93632116D01*
X96202177Y-93642576D01*
X96203321Y-93643109D01*
X96203323Y-93643111D01*
X96271357Y-93674835D01*
X96274456Y-93676335D01*
X96341567Y-93710040D01*
X96342704Y-93710611D01*
X96361084Y-93716998D01*
X96362321Y-93717253D01*
X96362327Y-93717256D01*
X96435862Y-93732439D01*
X96439209Y-93733181D01*
X96512279Y-93750500D01*
X96512281Y-93750500D01*
X96513505Y-93750790D01*
X96532876Y-93752769D01*
X96534140Y-93752732D01*
X96534144Y-93752733D01*
X96609110Y-93750552D01*
X96612716Y-93750500D01*
X101777289Y-93750500D01*
X101844328Y-93770185D01*
X101878863Y-93803376D01*
X101961505Y-93921401D01*
X102128599Y-94088495D01*
X102314596Y-94218732D01*
X102358219Y-94273307D01*
X102365412Y-94342806D01*
X102333890Y-94405160D01*
X102314595Y-94421880D01*
X102128919Y-94551892D01*
X101961890Y-94718921D01*
X101826400Y-94912421D01*
X101726569Y-95126507D01*
X101669364Y-95339999D01*
X101669364Y-95340000D01*
X102566314Y-95340000D01*
X102540507Y-95380156D01*
X102500000Y-95518111D01*
X102500000Y-95661889D01*
X102540507Y-95799844D01*
X102566314Y-95840000D01*
X101669364Y-95840000D01*
X101726569Y-96053492D01*
X101826399Y-96267576D01*
X101961893Y-96461081D01*
X102128918Y-96628106D01*
X102322423Y-96763600D01*
X102536509Y-96863430D01*
X102750000Y-96920634D01*
X102750000Y-96025501D01*
X102857685Y-96074680D01*
X102964237Y-96090000D01*
X103035763Y-96090000D01*
X103142315Y-96074680D01*
X103250000Y-96025501D01*
X103250000Y-96920633D01*
X103463490Y-96863430D01*
X103677576Y-96763600D01*
X103871081Y-96628106D01*
X104038106Y-96461081D01*
X104173600Y-96267576D01*
X104273430Y-96053492D01*
X104330636Y-95840000D01*
X103433686Y-95840000D01*
X103459493Y-95799844D01*
X103500000Y-95661889D01*
X103500000Y-95518111D01*
X103459493Y-95380156D01*
X103433686Y-95340000D01*
X104330636Y-95340000D01*
X104330635Y-95339999D01*
X104273430Y-95126507D01*
X104173599Y-94912421D01*
X104038109Y-94718921D01*
X103871081Y-94551893D01*
X103685404Y-94421880D01*
X103641780Y-94367303D01*
X103634587Y-94297804D01*
X103666109Y-94235450D01*
X103685399Y-94218734D01*
X103871401Y-94088495D01*
X103958076Y-94001819D01*
X104019400Y-93968334D01*
X104045758Y-93965500D01*
X106039242Y-93965500D01*
X106106281Y-93985185D01*
X106126923Y-94001819D01*
X106128599Y-94003495D01*
X106314596Y-94133732D01*
X106358219Y-94188307D01*
X106365412Y-94257806D01*
X106333890Y-94320160D01*
X106314595Y-94336880D01*
X106128919Y-94466892D01*
X105961890Y-94633921D01*
X105826400Y-94827421D01*
X105726569Y-95041507D01*
X105669364Y-95254999D01*
X105669364Y-95255000D01*
X106566314Y-95255000D01*
X106540507Y-95295156D01*
X106500000Y-95433111D01*
X106500000Y-95576889D01*
X106540507Y-95714844D01*
X106566314Y-95755000D01*
X105669364Y-95755000D01*
X105726569Y-95968492D01*
X105826399Y-96182576D01*
X105961893Y-96376081D01*
X106128918Y-96543106D01*
X106322423Y-96678600D01*
X106536509Y-96778430D01*
X106750000Y-96835634D01*
X106750000Y-95940501D01*
X106857685Y-95989680D01*
X106964237Y-96005000D01*
X107035763Y-96005000D01*
X107142315Y-95989680D01*
X107250000Y-95940501D01*
X107250000Y-96835633D01*
X107463490Y-96778430D01*
X107677576Y-96678600D01*
X107871081Y-96543106D01*
X108038106Y-96376081D01*
X108173600Y-96182576D01*
X108273430Y-95968492D01*
X108330636Y-95755000D01*
X107433686Y-95755000D01*
X107459493Y-95714844D01*
X107500000Y-95576889D01*
X107500000Y-95433111D01*
X107459493Y-95295156D01*
X107433686Y-95255000D01*
X108330636Y-95255000D01*
X108330635Y-95254999D01*
X108273430Y-95041507D01*
X108173599Y-94827421D01*
X108038109Y-94633921D01*
X107871081Y-94466893D01*
X107685404Y-94336880D01*
X107641780Y-94282303D01*
X107634587Y-94212804D01*
X107666109Y-94150450D01*
X107685399Y-94133734D01*
X107871401Y-94003495D01*
X108038495Y-93836401D01*
X108174035Y-93642830D01*
X108273903Y-93428663D01*
X108335063Y-93200408D01*
X108355659Y-92965000D01*
X108335063Y-92729592D01*
X108273903Y-92501337D01*
X108174035Y-92287171D01*
X108038495Y-92093599D01*
X107871401Y-91926505D01*
X107685839Y-91796573D01*
X107642216Y-91741998D01*
X107635022Y-91672500D01*
X107666545Y-91610145D01*
X107685837Y-91593428D01*
X107871401Y-91463495D01*
X108038495Y-91296401D01*
X108174035Y-91102830D01*
X108273903Y-90888663D01*
X108335063Y-90660408D01*
X108355659Y-90425000D01*
X108353515Y-90400500D01*
X108335063Y-90189592D01*
X108313749Y-90110046D01*
X108273903Y-89961337D01*
X108174035Y-89747171D01*
X108038495Y-89553599D01*
X107871401Y-89386505D01*
X107685839Y-89256573D01*
X107642216Y-89201998D01*
X107635022Y-89132500D01*
X107666545Y-89070145D01*
X107685837Y-89053428D01*
X107871401Y-88923495D01*
X108038495Y-88756401D01*
X108174035Y-88562830D01*
X108273903Y-88348663D01*
X108335063Y-88120408D01*
X108355659Y-87885000D01*
X108335063Y-87649592D01*
X108273903Y-87421337D01*
X108174035Y-87207171D01*
X108038495Y-87013599D01*
X107871401Y-86846505D01*
X107685839Y-86716573D01*
X107642216Y-86661998D01*
X107635022Y-86592500D01*
X107666545Y-86530145D01*
X107685837Y-86513428D01*
X107871401Y-86383495D01*
X108038495Y-86216401D01*
X108086127Y-86148374D01*
X108140703Y-86104751D01*
X108187701Y-86095500D01*
X109391294Y-86095500D01*
X109409264Y-86096809D01*
X109413320Y-86097402D01*
X109433023Y-86100289D01*
X109482368Y-86095972D01*
X109493176Y-86095500D01*
X109495100Y-86095500D01*
X109498709Y-86095500D01*
X109529550Y-86091894D01*
X109533031Y-86091539D01*
X109607797Y-86084999D01*
X109607797Y-86084998D01*
X109609052Y-86084889D01*
X109628062Y-86080674D01*
X109629250Y-86080241D01*
X109629255Y-86080241D01*
X109699820Y-86054557D01*
X109703095Y-86053419D01*
X109774334Y-86029814D01*
X109774336Y-86029812D01*
X109775536Y-86029415D01*
X109793063Y-86020929D01*
X109794112Y-86020238D01*
X109794117Y-86020237D01*
X109856806Y-85979005D01*
X109859798Y-85977099D01*
X109923656Y-85937712D01*
X109923656Y-85937711D01*
X109924729Y-85937050D01*
X109939824Y-85924753D01*
X109940692Y-85923832D01*
X109940696Y-85923830D01*
X109992187Y-85869251D01*
X109994633Y-85866733D01*
X110285641Y-85575724D01*
X110299260Y-85563954D01*
X110318530Y-85549610D01*
X110350370Y-85511662D01*
X110357686Y-85503681D01*
X110358264Y-85503102D01*
X110361591Y-85499776D01*
X110380853Y-85475413D01*
X110383076Y-85472686D01*
X110389106Y-85465500D01*
X110431302Y-85415214D01*
X110431303Y-85415211D01*
X110432115Y-85414244D01*
X110442573Y-85397827D01*
X110443106Y-85396682D01*
X110443111Y-85396677D01*
X110474833Y-85328646D01*
X110476362Y-85325488D01*
X110510040Y-85258433D01*
X110510040Y-85258432D01*
X110510612Y-85257294D01*
X110517000Y-85238915D01*
X110517255Y-85237675D01*
X110517257Y-85237673D01*
X110532435Y-85164157D01*
X110533200Y-85160708D01*
X110550500Y-85087721D01*
X110550500Y-85087718D01*
X110550791Y-85086491D01*
X110552770Y-85067120D01*
X110552733Y-85065858D01*
X110552734Y-85065855D01*
X110550552Y-84990868D01*
X110550500Y-84987262D01*
X110550500Y-79463705D01*
X110551809Y-79445735D01*
X110551961Y-79444691D01*
X110555289Y-79421977D01*
X110550972Y-79372629D01*
X110550500Y-79361823D01*
X110550500Y-79359901D01*
X110550500Y-79356291D01*
X110546903Y-79325520D01*
X110546536Y-79321929D01*
X110539889Y-79245949D01*
X110535672Y-79226930D01*
X110509592Y-79155274D01*
X110508408Y-79151868D01*
X110507955Y-79150500D01*
X110484814Y-79080666D01*
X110484812Y-79080663D01*
X110484415Y-79079464D01*
X110475929Y-79061936D01*
X110475237Y-79060884D01*
X110475237Y-79060883D01*
X110434001Y-78998188D01*
X110432086Y-78995181D01*
X110392048Y-78930269D01*
X110379748Y-78915170D01*
X110324273Y-78862832D01*
X110321686Y-78860319D01*
X109375728Y-77914360D01*
X109363946Y-77900727D01*
X109349609Y-77881469D01*
X109311666Y-77849631D01*
X109303691Y-77842323D01*
X109302329Y-77840961D01*
X109299777Y-77838409D01*
X109275444Y-77819169D01*
X109272647Y-77816890D01*
X109214251Y-77767890D01*
X109197821Y-77757422D01*
X109128691Y-77725186D01*
X109125447Y-77723615D01*
X109057306Y-77689394D01*
X109038903Y-77682997D01*
X108964211Y-77667574D01*
X108960692Y-77666794D01*
X108886490Y-77649208D01*
X108867121Y-77647229D01*
X108790869Y-77649448D01*
X108787263Y-77649500D01*
X79863706Y-77649500D01*
X79845736Y-77648191D01*
X79831853Y-77646157D01*
X79821977Y-77644711D01*
X79821976Y-77644711D01*
X79772634Y-77649028D01*
X79761827Y-77649500D01*
X79756291Y-77649500D01*
X79752730Y-77649916D01*
X79752715Y-77649917D01*
X79725484Y-77653100D01*
X79721900Y-77653466D01*
X79645950Y-77660111D01*
X79626922Y-77664329D01*
X79555270Y-77690407D01*
X79551869Y-77691589D01*
X79479480Y-77715578D01*
X79461927Y-77724076D01*
X79398236Y-77765965D01*
X79395198Y-77767901D01*
X79330277Y-77807947D01*
X79315162Y-77820258D01*
X79262815Y-77875742D01*
X79260304Y-77878327D01*
X78914359Y-78224271D01*
X78900728Y-78236051D01*
X78881470Y-78250388D01*
X78849635Y-78288328D01*
X78842338Y-78296292D01*
X78840972Y-78297657D01*
X78840950Y-78297681D01*
X78838409Y-78300223D01*
X78836173Y-78303050D01*
X78836171Y-78303053D01*
X78819176Y-78324546D01*
X78816902Y-78327337D01*
X78767894Y-78385744D01*
X78757418Y-78402187D01*
X78725192Y-78471294D01*
X78723622Y-78474536D01*
X78689393Y-78542692D01*
X78682996Y-78561098D01*
X78667573Y-78635788D01*
X78666793Y-78639305D01*
X78649208Y-78713506D01*
X78647229Y-78732879D01*
X78649448Y-78809129D01*
X78649500Y-78812735D01*
X78649500Y-82536294D01*
X78648191Y-82554264D01*
X78644711Y-82578023D01*
X78649028Y-82627368D01*
X78649500Y-82638175D01*
X78649500Y-82643709D01*
X78649916Y-82647272D01*
X78649917Y-82647282D01*
X78653098Y-82674496D01*
X78653464Y-82678082D01*
X78660109Y-82754041D01*
X78664329Y-82773071D01*
X78664758Y-82774251D01*
X78664759Y-82774255D01*
X78690413Y-82844742D01*
X78691582Y-82848107D01*
X78715580Y-82920524D01*
X78724075Y-82938072D01*
X78765979Y-83001784D01*
X78767889Y-83004782D01*
X78807288Y-83068656D01*
X78807952Y-83069732D01*
X78820253Y-83084831D01*
X78875710Y-83137152D01*
X78878297Y-83139665D01*
X79674269Y-83935637D01*
X79686049Y-83949268D01*
X79700389Y-83968529D01*
X79738339Y-84000373D01*
X79746314Y-84007681D01*
X79750224Y-84011591D01*
X79763531Y-84022113D01*
X79774541Y-84030818D01*
X79777304Y-84033069D01*
X79834786Y-84081302D01*
X79834788Y-84081303D01*
X79835750Y-84082110D01*
X79852180Y-84092578D01*
X79853322Y-84093110D01*
X79853323Y-84093111D01*
X79921350Y-84124832D01*
X79924527Y-84126371D01*
X79982525Y-84155499D01*
X79992702Y-84160610D01*
X80011085Y-84166999D01*
X80012322Y-84167254D01*
X80012328Y-84167257D01*
X80085852Y-84182437D01*
X80089286Y-84183199D01*
X80118649Y-84190159D01*
X80163506Y-84200791D01*
X80182879Y-84202770D01*
X80184141Y-84202733D01*
X80184145Y-84202734D01*
X80256534Y-84200627D01*
X80259132Y-84200552D01*
X80262738Y-84200500D01*
X80925500Y-84200500D01*
X80992539Y-84220185D01*
X81038294Y-84272989D01*
X81049500Y-84324500D01*
X81049500Y-86126726D01*
X81029815Y-86193765D01*
X80977011Y-86239520D01*
X80907853Y-86249464D01*
X80890905Y-86245803D01*
X80827569Y-86227402D01*
X80819922Y-86226800D01*
X80793128Y-86224691D01*
X80793114Y-86224690D01*
X80790694Y-86224500D01*
X79209306Y-86224500D01*
X79206886Y-86224690D01*
X79206871Y-86224691D01*
X79172427Y-86227402D01*
X79027268Y-86269576D01*
X78992673Y-86274500D01*
X78270533Y-86274500D01*
X78203494Y-86254815D01*
X78157739Y-86202011D01*
X78152827Y-86189503D01*
X78145549Y-86167539D01*
X78112003Y-86066303D01*
X78104777Y-86054588D01*
X78022969Y-85921957D01*
X78013341Y-85912329D01*
X77979854Y-85851007D01*
X77984837Y-85781315D01*
X78013341Y-85736963D01*
X78022572Y-85727732D01*
X78111546Y-85583484D01*
X78164856Y-85422606D01*
X78174680Y-85326445D01*
X78175000Y-85320167D01*
X78175000Y-85300000D01*
X76225001Y-85300000D01*
X76225001Y-85320165D01*
X76225321Y-85326447D01*
X76235143Y-85422605D01*
X76288453Y-85583486D01*
X76335897Y-85660403D01*
X76354338Y-85727795D01*
X76333416Y-85794459D01*
X76279774Y-85839228D01*
X76230359Y-85849500D01*
X72752978Y-85849500D01*
X72688828Y-85831617D01*
X72605618Y-85781315D01*
X72564606Y-85756522D01*
X72402196Y-85705914D01*
X72402193Y-85705913D01*
X72334424Y-85699755D01*
X72334420Y-85699754D01*
X72331616Y-85699500D01*
X72328797Y-85699500D01*
X72106817Y-85699500D01*
X72072963Y-85691476D01*
X72072531Y-85693302D01*
X72060007Y-85690333D01*
X72038903Y-85682997D01*
X71964211Y-85667574D01*
X71960692Y-85666794D01*
X71886490Y-85649208D01*
X71867121Y-85647229D01*
X71790869Y-85649448D01*
X71787263Y-85649500D01*
X66562230Y-85649500D01*
X66495191Y-85629815D01*
X66474549Y-85613181D01*
X65661368Y-84800000D01*
X76225000Y-84800000D01*
X76950000Y-84800000D01*
X76950000Y-84100000D01*
X77450000Y-84100000D01*
X77450000Y-84800000D01*
X78174999Y-84800000D01*
X78174999Y-84779834D01*
X78174678Y-84773552D01*
X78164856Y-84677394D01*
X78111546Y-84516513D01*
X78022573Y-84372267D01*
X77902732Y-84252426D01*
X77758486Y-84163453D01*
X77597606Y-84110143D01*
X77501445Y-84100319D01*
X77495168Y-84100000D01*
X77450000Y-84100000D01*
X76950000Y-84100000D01*
X76904835Y-84100000D01*
X76898551Y-84100321D01*
X76802394Y-84110143D01*
X76641513Y-84163453D01*
X76497267Y-84252426D01*
X76377426Y-84372267D01*
X76288453Y-84516513D01*
X76235143Y-84677393D01*
X76225319Y-84773554D01*
X76225000Y-84779832D01*
X76225000Y-84800000D01*
X65661368Y-84800000D01*
X65297007Y-84435639D01*
X65263522Y-84374316D01*
X65262118Y-84366735D01*
X65238556Y-84212928D01*
X65167886Y-84022113D01*
X65060254Y-83849431D01*
X65018494Y-83805500D01*
X64920059Y-83701947D01*
X64753049Y-83585705D01*
X64566058Y-83505460D01*
X64366741Y-83464500D01*
X64366739Y-83464500D01*
X60324499Y-83464500D01*
X60257460Y-83444815D01*
X60211705Y-83392011D01*
X60200499Y-83340500D01*
X60200499Y-82920439D01*
X60200499Y-82920438D01*
X60200499Y-82917128D01*
X60194091Y-82857517D01*
X60143796Y-82722669D01*
X60057546Y-82607454D01*
X59942331Y-82521204D01*
X59807483Y-82470909D01*
X59747873Y-82464500D01*
X59744550Y-82464500D01*
X56655439Y-82464500D01*
X56655420Y-82464500D01*
X56652128Y-82464501D01*
X56648848Y-82464853D01*
X56648840Y-82464854D01*
X56592515Y-82470909D01*
X56457669Y-82521204D01*
X56342454Y-82607454D01*
X56256204Y-82722668D01*
X56205910Y-82857515D01*
X56205909Y-82857517D01*
X56199500Y-82917127D01*
X56199500Y-82920448D01*
X56199500Y-82920449D01*
X56199500Y-86009560D01*
X56199500Y-86009578D01*
X56199501Y-86012872D01*
X56199853Y-86016152D01*
X56199854Y-86016159D01*
X56205909Y-86072484D01*
X56226140Y-86126726D01*
X56256204Y-86207331D01*
X56342454Y-86322546D01*
X56457669Y-86408796D01*
X56592517Y-86459091D01*
X56652127Y-86465500D01*
X59747872Y-86465499D01*
X59807483Y-86459091D01*
X59942331Y-86408796D01*
X60057546Y-86322546D01*
X60143796Y-86207331D01*
X60194091Y-86072483D01*
X60200500Y-86012873D01*
X60200499Y-85589500D01*
X60220185Y-85522461D01*
X60272989Y-85476706D01*
X60324500Y-85465500D01*
X64152770Y-85465500D01*
X64219809Y-85485185D01*
X64240451Y-85501819D01*
X65624267Y-86885634D01*
X65636048Y-86899266D01*
X65650389Y-86918529D01*
X65688339Y-86950373D01*
X65696314Y-86957681D01*
X65700223Y-86961590D01*
X65703055Y-86963829D01*
X65703065Y-86963838D01*
X65724542Y-86980819D01*
X65727298Y-86983063D01*
X65784786Y-87031302D01*
X65784788Y-87031303D01*
X65785757Y-87032116D01*
X65802177Y-87042576D01*
X65803321Y-87043109D01*
X65803323Y-87043111D01*
X65871357Y-87074835D01*
X65874456Y-87076335D01*
X65941567Y-87110040D01*
X65942704Y-87110611D01*
X65961084Y-87116998D01*
X65962321Y-87117253D01*
X65962327Y-87117256D01*
X66035862Y-87132439D01*
X66039209Y-87133181D01*
X66112279Y-87150500D01*
X66112281Y-87150500D01*
X66113505Y-87150790D01*
X66132876Y-87152769D01*
X66134140Y-87152732D01*
X66134144Y-87152733D01*
X66209110Y-87150552D01*
X66212716Y-87150500D01*
X71048398Y-87150500D01*
X71115437Y-87170185D01*
X71154514Y-87210349D01*
X71169528Y-87235185D01*
X71271662Y-87337319D01*
X71305146Y-87398640D01*
X71300162Y-87468332D01*
X71271662Y-87512680D01*
X71169527Y-87614815D01*
X71092486Y-87742257D01*
X71081522Y-87760394D01*
X71062455Y-87821583D01*
X71030913Y-87922806D01*
X71027312Y-87962437D01*
X71024500Y-87993384D01*
X71024500Y-88506616D01*
X71024754Y-88509420D01*
X71024755Y-88509424D01*
X71030913Y-88577193D01*
X71030914Y-88577196D01*
X71081522Y-88739606D01*
X71091675Y-88756401D01*
X71169528Y-88885186D01*
X71213180Y-88928837D01*
X71246666Y-88990160D01*
X71249500Y-89016519D01*
X71249500Y-90175500D01*
X71229815Y-90242539D01*
X71177011Y-90288294D01*
X71125500Y-90299500D01*
X70412229Y-90299500D01*
X70345190Y-90279815D01*
X70324548Y-90263181D01*
X69878859Y-89817492D01*
X69432007Y-89370639D01*
X69398522Y-89309316D01*
X69397118Y-89301735D01*
X69394860Y-89286997D01*
X69374639Y-89155000D01*
X69373556Y-89147928D01*
X69302886Y-88957113D01*
X69195254Y-88784431D01*
X69165693Y-88753333D01*
X69055059Y-88636947D01*
X68888049Y-88520705D01*
X68701058Y-88440460D01*
X68501741Y-88399500D01*
X68501739Y-88399500D01*
X68170532Y-88399500D01*
X68103493Y-88379815D01*
X68057738Y-88327011D01*
X68047794Y-88257853D01*
X68048219Y-88255116D01*
X68054264Y-88218841D01*
X68054660Y-88216466D01*
X68055615Y-88205650D01*
X68054579Y-88197827D01*
X68036726Y-88062973D01*
X67978406Y-87931397D01*
X67885379Y-87821581D01*
X67765180Y-87742423D01*
X67763797Y-87742000D01*
X67627549Y-87700335D01*
X67627546Y-87700334D01*
X67627544Y-87700334D01*
X67619106Y-87699683D01*
X67619086Y-87699682D01*
X67616724Y-87699500D01*
X65183277Y-87699500D01*
X65180929Y-87699681D01*
X65180905Y-87699682D01*
X65172447Y-87700335D01*
X65034822Y-87742421D01*
X64914619Y-87821583D01*
X64821595Y-87931394D01*
X64763272Y-88062975D01*
X64744384Y-88205647D01*
X64745129Y-88214068D01*
X64745341Y-88216468D01*
X64745731Y-88218810D01*
X64745734Y-88218831D01*
X64751782Y-88255115D01*
X64743386Y-88324478D01*
X64698822Y-88378292D01*
X64632240Y-88399469D01*
X64629469Y-88399500D01*
X59903494Y-88399500D01*
X59836455Y-88379815D01*
X59804227Y-88349811D01*
X59785263Y-88324478D01*
X59715739Y-88231605D01*
X59513395Y-88029261D01*
X59324320Y-87887721D01*
X59284313Y-87857772D01*
X59033163Y-87720634D01*
X59033162Y-87720633D01*
X59033161Y-87720633D01*
X58765046Y-87620631D01*
X58765041Y-87620629D01*
X58485429Y-87559804D01*
X58200000Y-87539389D01*
X57914570Y-87559804D01*
X57634958Y-87620629D01*
X57366836Y-87720634D01*
X57115686Y-87857772D01*
X56886602Y-88029263D01*
X56684263Y-88231602D01*
X56512772Y-88460686D01*
X56375634Y-88711836D01*
X56275629Y-88979958D01*
X56214804Y-89259570D01*
X56194389Y-89545000D01*
X55800000Y-89545000D01*
X55800000Y-75524000D01*
X55819685Y-75456961D01*
X55872489Y-75411206D01*
X55924000Y-75400000D01*
X113275004Y-75400000D01*
X113342043Y-75419685D01*
G37*
%TD.AperFunction*%
%TD*%
M02*
